<?xml version="1.0" encoding="utf-8"?>
<!-- Generator: Adobe Illustrator 18.0.0, SVG Export Plug-In . SVG Version: 6.00 Build 0)  -->
<!DOCTYPE svg PUBLIC "-//W3C//DTD SVG 1.1//EN" "http://www.w3.org/Graphics/SVG/1.1/DTD/svg11.dtd">
<svg version="1.1" id="Layer_1" xmlns="http://www.w3.org/2000/svg" xmlns:xlink="http://www.w3.org/1999/xlink" x="0px" y="0px"
	 width="229.2px" height="70px" viewBox="0 0 229.2 70" enable-background="new 0 0 229.2 70" xml:space="preserve">
<g>
	<g id="XMLID_30_">
		<path id="XMLID_242_" fill="#6D6F70" d="M85.1,67.6c0.6,0.4,1.5,0.7,2.5,0.7c1.1,0,2-0.6,2-1.6c0-0.7-0.5-1.2-1.5-1.8
			c-1.3-0.7-2.2-1.5-2.2-2.9c0-2.1,1.8-3.4,4-3.4c1.2,0,2,0.3,2.4,0.6l-0.6,1.6c-0.4-0.2-1.1-0.5-2-0.5c-1.2,0-1.9,0.7-1.9,1.4
			c0,0.7,0.6,1.2,1.6,1.8c1.3,0.7,2.1,1.6,2.1,2.9c0,2.2-1.8,3.5-4.2,3.5c-1.3,0-2.4-0.4-2.9-0.8L85.1,67.6z"/>
	</g>
	<g id="XMLID_237_">
		<path id="XMLID_238_" fill="#6D6F70" d="M100.7,65c0,2.7-1.9,5-4.6,5c-2,0-3.2-1.4-3.2-3.3c0-2.7,1.9-5,4.6-5
			C99.6,61.7,100.7,63.2,100.7,65 M94.9,66.6c0,1.1,0.6,1.9,1.5,1.9c1.4,0,2.4-1.9,2.4-3.5c0-0.8-0.4-1.8-1.5-1.8
			C95.8,63.2,94.9,65.2,94.9,66.6"/>
	</g>
	<g id="XMLID_27_">
		<path id="XMLID_236_" fill="#6D6F70" d="M101.6,69.8l1-5.5c0.2-0.9,0.3-1.8,0.4-2.5h1.6l-0.2,1.4h0c0.7-1.1,1.7-1.6,2.8-1.6
			c1.2,0,1.8,0.8,1.9,1.6c0.7-1.1,1.7-1.6,2.8-1.6c1.1,0,1.9,0.7,1.9,2.1c0,0.3-0.1,0.9-0.1,1.3l-0.9,4.6H111l0.8-4.4
			c0.1-0.3,0.1-0.7,0.1-1c0-0.7-0.3-1.1-1-1.1c-0.9,0-1.8,1.1-2.1,2.8l-0.7,3.8h-1.8l0.9-4.5c0-0.3,0.1-0.6,0.1-0.9
			c0-0.6-0.2-1.1-1-1.1c-0.9,0-1.9,1.2-2.2,2.8l-0.7,3.7H101.6z"/>
	</g>
	<g id="XMLID_231_">
		<path id="XMLID_232_" fill="#6D6F70" d="M122.9,65c0,2.7-1.9,5-4.6,5c-2,0-3.2-1.4-3.2-3.3c0-2.7,1.9-5,4.6-5
			C121.8,61.7,122.9,63.2,122.9,65 M117.1,66.6c0,1.1,0.6,1.9,1.5,1.9c1.4,0,2.4-1.9,2.4-3.5c0-0.8-0.4-1.8-1.5-1.8
			C117.9,63.2,117.1,65.2,117.1,66.6"/>
	</g>
	<g id="XMLID_24_">
		<path id="XMLID_230_" fill="#6D6F70" d="M123.9,68c0.4,0.2,1.2,0.5,1.9,0.5c0.8,0,1.2-0.4,1.2-1c0-0.5-0.3-0.8-1-1.2
			c-0.9-0.5-1.6-1.2-1.6-2.1c0-1.5,1.3-2.6,3.2-2.6c0.8,0,1.5,0.2,1.9,0.4l-0.5,1.4c-0.3-0.2-0.8-0.4-1.5-0.4
			c-0.7,0-1.2,0.4-1.2,0.9c0,0.5,0.3,0.8,1,1.1c0.9,0.5,1.6,1.1,1.6,2.1c0,1.8-1.5,2.7-3.4,2.7c-0.9,0-1.8-0.3-2.2-0.6L123.9,68z"/>
	</g>
	<g id="XMLID_23_">
		<path id="XMLID_228_" fill="#6D6F70" d="M133.6,67.6c0.6,0.4,1.5,0.7,2.5,0.7c1.1,0,2-0.6,2-1.6c0-0.7-0.5-1.2-1.5-1.8
			c-1.3-0.7-2.2-1.5-2.2-2.9c0-2.1,1.8-3.4,4-3.4c1.2,0,2,0.3,2.4,0.6l-0.6,1.6c-0.4-0.2-1.1-0.5-2-0.5c-1.2,0-1.9,0.7-1.9,1.4
			c0,0.7,0.6,1.2,1.6,1.8c1.3,0.7,2.1,1.6,2.1,2.9c0,2.2-1.8,3.5-4.2,3.5c-1.3,0-2.4-0.4-2.9-0.8L133.6,67.6z"/>
	</g>
	<g id="XMLID_22_">
		<path id="XMLID_226_" fill="#6D6F70" d="M149.3,61.9l-1,5.5c-0.2,0.9-0.3,1.8-0.4,2.5h-1.7l0.2-1.4h0c-0.8,1-1.8,1.6-2.7,1.6
			c-1.2,0-2.1-0.6-2.1-2.2c0-0.4,0-0.9,0.2-1.4l0.8-4.4h1.9l-0.8,4.3c-0.1,0.4-0.1,0.8-0.1,1.1c0,0.6,0.3,1.1,1,1.1
			c0.9,0,1.9-1,2.2-2.7l0.7-3.9H149.3z"/>
	</g>
	<g id="XMLID_221_">
		<path id="XMLID_222_" fill="#6D6F70" d="M155.7,66.7l-1.5,3.1h-2l5.5-11h2.4l1.4,11h-2l-0.3-3.1H155.7z M159,65.2l-0.3-2.7
			c0-0.6-0.1-1.4-0.2-2.1h0c-0.3,0.7-0.6,1.4-0.9,2.1l-1.3,2.7H159z"/>
	</g>
	<g id="XMLID_19_">
		<polygon id="XMLID_220_" fill="#6D6F70" points="162.7,69.8 164.9,58.2 166.8,58.2 164.6,69.8 		"/>
	</g>
	<g id="XMLID_18_">
		<path id="XMLID_218_" fill="#6D6F70" d="M170.7,59.8l-0.4,2h1.8l-0.3,1.5h-1.8l-0.6,3.2c-0.1,0.4-0.1,0.8-0.1,1.1
			c0,0.4,0.2,0.7,0.7,0.7c0.2,0,0.5,0,0.7,0l-0.2,1.5c-0.3,0.1-0.8,0.2-1.2,0.2c-1.3,0-1.9-0.7-1.9-1.6c0-0.4,0-0.9,0.2-1.5l0.7-3.5
			h-1.1l0.3-1.5h1.1l0.3-1.5L170.7,59.8z"/>
	</g>
	<g id="XMLID_213_">
		<path id="XMLID_214_" fill="#6D6F70" d="M178.3,69.3c-0.8,0.4-1.8,0.6-2.8,0.6c-2.2,0-3.3-1.3-3.3-3.3c0-2.4,1.8-5,4.5-5
			c1.6,0,2.6,0.9,2.6,2.2c0,2-2.1,2.7-5.2,2.6c0,0.3,0,0.8,0.2,1.1c0.3,0.5,0.9,0.8,1.6,0.8c0.9,0,1.6-0.2,2.2-0.5L178.3,69.3z
			 M176.5,63.1c-1.2,0-2,1.1-2.2,2c2,0,3.2-0.2,3.2-1.2C177.5,63.4,177.1,63.1,176.5,63.1"/>
	</g>
	<g id="XMLID_15_">
		<path id="XMLID_212_" fill="#6D6F70" d="M179.8,69.8l0.9-4.9c0.2-1.1,0.3-2.3,0.4-3h1.6c0,0.5-0.1,1.1-0.2,1.7h0
			c0.5-1.1,1.4-1.8,2.5-1.8c0.1,0,0.3,0,0.4,0l-0.4,1.9c-0.1,0-0.2,0-0.4,0c-1.3,0-2.2,1.4-2.5,3.1l-0.6,3.2H179.8z"/>
	</g>
	<g id="XMLID_14_">
		<path id="XMLID_210_" fill="#6D6F70" d="M185.5,69.8l1-5.5c0.2-0.9,0.3-1.8,0.4-2.5h1.7l-0.2,1.4h0c0.7-1.1,1.7-1.6,2.8-1.6
			c1.1,0,2,0.7,2,2.2c0,0.4-0.1,0.9-0.1,1.3l-0.9,4.6h-1.9l0.8-4.5c0-0.3,0.1-0.6,0.1-0.9c0-0.7-0.2-1.1-1-1.1c-0.9,0-2,1-2.3,2.9
			l-0.7,3.7H185.5z"/>
	</g>
	<g id="XMLID_205_">
		<path id="XMLID_206_" fill="#6D6F70" d="M199.6,69.8c0-0.5,0.1-1.1,0.1-1.8h0c-0.8,1.4-1.8,1.9-2.8,1.9c-1.4,0-2.3-1.1-2.3-2.7
			c0-2.7,1.9-5.6,5.6-5.6c0.9,0,1.8,0.2,2.4,0.4l-0.8,4.1c-0.2,1.2-0.4,2.7-0.3,3.6H199.6z M200.4,63.2c-0.2,0-0.4-0.1-0.8-0.1
			c-1.7,0-3.1,2-3.1,3.8c0,0.8,0.3,1.5,1.1,1.5c0.9,0,2-1.1,2.3-3.1L200.4,63.2z"/>
	</g>
	<g id="XMLID_11_">
		<path id="XMLID_204_" fill="#6D6F70" d="M207.2,59.8l-0.4,2h1.8l-0.3,1.5h-1.8l-0.6,3.2c-0.1,0.4-0.1,0.8-0.1,1.1
			c0,0.4,0.2,0.7,0.7,0.7c0.2,0,0.5,0,0.7,0l-0.2,1.5c-0.3,0.1-0.8,0.2-1.2,0.2c-1.3,0-1.9-0.7-1.9-1.6c0-0.4,0-0.9,0.2-1.5l0.7-3.5
			h-1.1l0.3-1.5h1.1l0.3-1.5L207.2,59.8z"/>
	</g>
	<g id="XMLID_199_">
		<path id="XMLID_200_" fill="#6D6F70" d="M208.6,69.8l1.5-7.9h1.9l-1.5,7.9H208.6z M210.4,59.7c0-0.7,0.5-1.1,1.1-1.1
			c0.6,0,1,0.4,1,1c0,0.7-0.5,1.1-1.2,1.1C210.8,60.7,210.4,60.3,210.4,59.7"/>
	</g>
	<g id="XMLID_8_">
		<path id="XMLID_198_" fill="#6D6F70" d="M215,61.9l0.5,3.9c0.1,0.9,0.2,1.5,0.2,2.1h0.1c0.2-0.5,0.4-1.1,0.9-2l2-4h2.1l-4.4,7.9
			h-1.9l-1.3-7.9H215z"/>
	</g>
	<g id="XMLID_193_">
		<path id="XMLID_194_" fill="#6D6F70" d="M225.4,69.8c0-0.5,0.1-1.1,0.1-1.8h0c-0.8,1.4-1.8,1.9-2.8,1.9c-1.4,0-2.3-1.1-2.3-2.7
			c0-2.7,1.9-5.6,5.6-5.6c0.9,0,1.8,0.2,2.4,0.4l-0.8,4.1c-0.2,1.2-0.4,2.7-0.3,3.6H225.4z M226.2,63.2c-0.2,0-0.4-0.1-0.8-0.1
			c-1.7,0-3.1,2-3.1,3.8c0,0.8,0.3,1.5,1.1,1.5c0.9,0,2-1.1,2.3-3.1L226.2,63.2z"/>
	</g>
	<g id="XMLID_34_">
		<path id="XMLID_81_" fill="#057DC1" d="M89.1,17.8c0-1.5-0.5-3-1.3-4.1c-0.9-1.2-2.1-2-3.6-2.3l-4.5-1l0,0
			c-0.7-0.1-1.4-0.9-1.4-2.1c0-0.8,0.4-1.6,1.1-2.2c0.7-0.6,1.5-1,2.3-1h8.6l0.6-3.6h-9.1c-1.9,0-3.7,0.8-5.2,2.2
			C75,5.2,74.2,7,74.2,8.9c0,1.3,0.4,2.4,1.1,3.3c0.7,0.9,1.7,1.5,3,1.8l4.7,1c1.3,0.3,2.3,1.7,2.3,3.3c0,1.2-0.6,2.5-1.6,3.5
			c-1,1-2.3,1.5-3.6,1.5h-7.7l-0.6,3.6h8.2c2.3,0,4.6-1,6.4-2.7C88,22.5,89.1,20.1,89.1,17.8z"/>
		<path id="XMLID_162_" fill="#057DC1" d="M89.7,19.6c-0.1,0.5-0.1,0.9-0.1,1.3c0,1.7,0.6,3.2,1.7,4.3c1.1,1.1,2.7,1.7,4.4,1.7h5.9
			l0.6-3.6h-6.1c-0.8,0-1.4-0.3-1.9-0.8c-0.5-0.5-0.7-1.1-0.7-1.9c0-0.1,0-0.3,0-0.4l6.1-1.4c1.3-0.3,2.6-1.1,3.5-2.1
			c1-1.1,1.6-2.5,1.6-3.8c0-2.6-2-4.4-4.7-4.4H97c-1.4,0-2.9,0.5-4,1.5c-1.2,1-2,2.3-2.2,3.6L89.7,19.6L89.7,19.6z M94.7,13.8
			c0.2-0.9,1-1.8,1.9-1.8h3.1c0.6,0,1.2,0.6,1.2,1.3c0,1.1-0.8,1.8-1.6,2l-5,1.2L94.7,13.8z"/>
		<path id="XMLID_165_" fill="#057DC1" d="M112.7,30.3c-0.8,0.7-1.7,1-2.6,1h-4.5l-0.6,3.6h4.7c4,0,7.7-3.1,8.4-7l3.4-19.3h-8.8
			c-1.4,0-2.8,0.5-3.9,1.5c-1.1,1-1.9,2.3-2.1,3.6l-1.1,6.3c-0.1,0.4-0.1,0.8-0.1,1.2c0,1.6,0.6,3.1,1.7,4.1
			c1.1,1.1,2.6,1.7,4.2,1.7h3l-0.2,0.9C114,28.8,113.5,29.6,112.7,30.3z M110.6,13.5c0.1-0.8,0.9-1.5,1.7-1.5h4.7l-2,11.3h-3.2
			c-0.7,0-1.3-0.2-1.8-0.7c-0.4-0.4-0.7-1-0.7-1.7c0-0.2,0-0.3,0.1-0.5l0,0L110.6,13.5L110.6,13.5z"/>
		<path id="XMLID_166_" fill="#057DC1" d="M126.6,26.9h1.4c1.5,0,2.8-0.4,3.9-1.2l0.6,1.2h2.6l3.2-18.4h-3.9l-2,11.4
			c-0.3,1.9-2.2,3.4-4,3.4H127c-0.6,0-1-0.4-1-1c0-0.1,0-0.2,0-0.2l2.4-13.6h-3.9l-2.3,13.1c-0.1,0.3-0.1,0.7-0.1,0.9
			c0,1.2,0.5,2.3,1.3,3.1C124.2,26.5,125.4,26.9,126.6,26.9z"/>
		<path id="XMLID_167_" fill="#057DC1" d="M142.1,26.9l2-11.5l0,0c0.3-1.8,2.1-3.3,3.9-3.3h4.6l0.7-3.6h-4.8c-1.4,0-2.7,0.4-3.9,1.2
			L144,8.5h-2.6l-3.2,18.4H142.1z"/>
		<path id="XMLID_170_" fill="#057DC1" d="M151.7,20.9c-0.1,0.4-0.1,0.7-0.1,1.1c0,1.4,0.5,2.6,1.4,3.5c0.9,0.9,2.2,1.4,3.6,1.4h2.5
			c1.6,0,3.1-0.6,4.4-1.7c1.3-1.1,2.1-2.6,2.4-4.1l1.3-7.3l0,0c0-0.3,0.1-0.6,0.1-0.9c0-1.2-0.4-2.3-1.3-3.1c-0.8-0.8-2-1.3-3.2-1.3
			H159c-1.4,0-2.8,0.5-3.9,1.5c-1.1,1-1.9,2.3-2.1,3.6L151.7,20.9z M156.9,13.5c0.1-0.8,0.9-1.4,1.7-1.4h3.8c0.6,0,1,0.4,1,1
			c0,0.1,0,0.2,0,0.2l0,0l-1.4,7.9c-0.2,1.1-1.3,2.1-2.4,2.1H157c-0.9,0-1.6-0.6-1.6-1.6c0-0.1,0-0.2,0-0.3l0,0L156.9,13.5
			L156.9,13.5z"/>
		<path id="XMLID_171_" fill="#057DC1" d="M99.1,30.4l-3,17.2c-0.2,1.1-0.8,2.1-1.7,2.9c-0.9,0.8-2,1.2-3.1,1.2h-0.7
			c-0.9,0-1.8-0.3-2.3-0.9c-0.6-0.6-0.9-1.4-0.9-2.3c0-0.2,0-0.4,0-0.6l3.1-17.4h-3.9l-3,16.9l0,0c-0.1,0.5-0.1,0.9-0.1,1.4
			c0,1.8,0.7,3.5,1.9,4.7c1.2,1.2,2.9,1.9,4.8,1.9h0.7c2.1,0,4.2-0.8,5.9-2.3c1.7-1.5,2.8-3.4,3.2-5.5l3-17.1H99.1z"/>
		<path id="XMLID_172_" fill="#057DC1" d="M112,37.1h-1.4c-1.4,0-2.7,0.4-3.9,1.2l-0.6-1.2h-2.5l-3.2,18.1h3.9l1.9-11.2
			c0.3-1.8,2.1-3.3,3.9-3.3h1.4c0.6,0,1,0.4,1,1c0,0,0,0.1,0,0.2l0,0l-2.3,13.4h3.9l2.2-12.8l0,0c0-0.3,0.1-0.6,0.1-0.9
			C116.4,39,114.5,37.1,112,37.1z"/>
		<polygon id="XMLID_173_" fill="#057DC1" points="116.9,55.2 120.8,55.2 124,37.1 120.1,37.1 		"/>
		<polygon id="XMLID_174_" fill="#057DC1" points="120.5,34.9 124.4,34.9 125.2,30.4 121.3,30.4 		"/>
		<polygon id="XMLID_175_" fill="#057DC1" points="136.3,37.1 130.8,48.4 129.3,37.1 125.4,37.1 128,55.2 131.5,55.2 140.5,37.1 		
			"/>
		<path id="XMLID_178_" fill="#057DC1" d="M149,37.1h-3c-1.4,0-2.8,0.5-4,1.5c-1.2,0.9-1.9,2.2-2.1,3.6l-1,5.8l0,0
			c-0.1,0.4-0.1,0.9-0.1,1.3c0,1.6,0.6,3.1,1.7,4.2c1.1,1.1,2.6,1.7,4.3,1.7h5.8l0.6-3.5h-6c-0.7,0-1.4-0.3-1.9-0.7
			c-0.5-0.5-0.7-1.1-0.7-1.8c0-0.1,0-0.2,0-0.4l6-1.4c1.3-0.3,2.5-1.1,3.5-2.1c1-1.1,1.5-2.4,1.5-3.7C153.6,39,151.7,37.1,149,37.1z
			 M149.7,41.9c0,1-0.8,1.8-1.6,1.9l-4.9,1.2l0.5-2.6c0.2-0.9,1-1.7,1.8-1.7h3C149.2,40.7,149.7,41.2,149.7,41.9z"/>
		<path id="XMLID_179_" fill="#057DC1" d="M168.3,37.1h-4.8c-1.4,0-2.6,0.4-3.8,1.2l-0.6-1.2h-2.5l-3.2,18.1h3.9l2-11.3l0,0
			c0.3-1.8,2-3.2,3.8-3.2h4.5L168.3,37.1z"/>
		<path id="XMLID_180_" fill="#057DC1" d="M169.8,38.9c-1.2,1.1-1.9,2.7-1.9,4.2c0,2,1.3,3.6,3.4,4.2l4.2,1.1
			c0.6,0.2,0.9,0.6,0.9,1.2c0,1.1-0.9,2.1-1.9,2.1h-7.9l-0.6,3.5h8.1c1.5,0,3.1-0.6,4.3-1.8c1.2-1.1,1.9-2.7,1.9-4.2
			c0-2-1.3-3.7-3.4-4.2l-4.3-1.2c-0.5-0.1-0.8-0.5-0.8-1.1c0-1,0.9-2.1,1.9-2.1h7.2l0.7-3.5h-7.5C172.6,37.1,171,37.8,169.8,38.9z"
			/>
		<polygon id="XMLID_181_" fill="#057DC1" points="186.6,30.4 185.7,34.9 189.6,34.9 190.4,30.4 		"/>
		<polygon id="XMLID_182_" fill="#057DC1" points="182.2,55.2 186.1,55.2 189.3,37.1 185.4,37.1 		"/>
		<path id="XMLID_183_" fill="#057DC1" d="M193.7,50.5c0-0.1,0-0.2,0-0.3l0,0l1.7-9.6h4.1l0.7-3.5H196l1.2-6.8h-3.9L189.9,50l0,0.1
			c0,0.3-0.1,0.5-0.1,0.8c0,1.2,0.5,2.3,1.3,3.1c0.8,0.8,2,1.2,3.3,1.2h2.5l0.6-3.5h-2.7C194.1,51.7,193.7,51.2,193.7,50.5z"/>
		<path id="XMLID_186_" fill="#057DC1" d="M209,37.1H202l-0.7,3.5h7.3c0.6,0,1,0.4,1,1c0,0,0,0,0,0.1c0,0,0,0.1,0,0.2l-0.3,1.8
			l-6,1.4c-1.3,0.3-2.6,1.1-3.5,2.2c-1,1.1-1.5,2.4-1.5,3.7c0,1.2,0.4,2.3,1.2,3.1c0.8,0.8,1.9,1.2,3.2,1.2h8.4l2.2-12.9l0,0
			c0-0.3,0.1-0.6,0.1-0.9C213.4,39,211.6,37.1,209,37.1z M208.6,47.3l-0.8,4.4h-4.8c-0.7,0-0.9-0.7-0.9-1.2c0-0.1,0-0.2,0-0.3
			c0.2-0.8,0.8-1.5,1.6-1.7L208.6,47.3z"/>
		<path id="XMLID_187_" fill="#057DC1" d="M221.3,40.7h7.2l0.7-3.5h-7.5c-1.5,0-3.1,0.6-4.3,1.8c-1.2,1.1-1.9,2.7-1.9,4.2
			c0,2,1.3,3.6,3.4,4.2v0l4.2,1.1c0.6,0.2,0.9,0.6,0.9,1.2c0,1.1-0.9,2.1-1.9,2.1h-7.9l-0.6,3.5h8.1c1.5,0,3.1-0.6,4.3-1.8
			c1.2-1.1,1.9-2.7,1.9-4.2c0-2-1.3-3.7-3.4-4.2l-4.3-1.2c-0.5-0.1-0.8-0.5-0.8-1.1C219.4,41.7,220.3,40.7,221.3,40.7z"/>
		<path id="XMLID_188_" fill="#057DC1" d="M172.2,19.9l4.7,1c1.3,0.3,2.3,1.7,2.3,3.3c0,1.2-0.6,2.5-1.6,3.5c-1,1-2.3,1.5-3.6,1.5
			l-17.6,0.1l-2.4,3.4l19.9,0.1c2.3,0,4.6-1,6.4-2.7c1.8-1.7,2.8-4.1,2.8-6.4c0-1.5-0.5-3-1.3-4.1c-0.9-1.2-2.1-2-3.6-2.3l-4.5-1
			l0,0c-0.9-0.2-1.4-1.2-1.4-2.1c0-0.8,0.4-1.6,1.1-2.2c0.7-0.6,1.5-1,2.3-1h8.6l0.6-3.6h-9.1c-1.9,0-3.7,0.8-5.2,2.2
			c-1.4,1.4-2.3,3.3-2.3,5.2c0,1.3,0.4,2.4,1.1,3.3C170,19.1,171,19.7,172.2,19.9z"/>
	</g>
	<g id="XMLID_126_">
		<g id="XMLID_3_">
			<path id="XMLID_132_" fill="#057DC1" d="M46.8,25.2c-1.6-2.8-4.2-4.9-6.9-6c-3-1.2-6.3-1.3-9.3-0.1c-1.3,0.5-2.4,1.3-3.3,2.1
				c-3.1,3.3-3.8,8.6-1.3,13.3c1.7,3.2,4.5,5.5,7.6,6.7c3.3,1.2,6.8,1.2,9.9-0.4c0.9-0.4,1.6-1,2.3-1.6
				C48.9,35.6,49.5,29.9,46.8,25.2"/>
		</g>
		<g id="XMLID_2_">
			<path id="XMLID_130_" fill="#057DC1" d="M68.6,34.2C67.9,26.8,64.8,19,59.4,13c-3.8-4.5-8.7-7.9-13.9-10.1
				c-9-3.8-19.7-3.9-27.4-0.5C14.3,4,11,6.2,8.4,8.8c-1.9,1.9-3.4,4-4.7,6.2c-2.9,5.2-4.1,11.1-3.6,16.2c1-6.5,4.3-13.2,9.4-18.3
				c3.2-3.4,7.2-6.1,11.9-7.6c6.8-2.5,15.2-2.1,22.5,0.8c4.7,1.9,9.2,5,12.6,9c8.8,9.9,10.4,26.1,4.5,36.3c-1.3,2.4-2.9,4.5-4.8,6.4
				c-6.8,7.1-16.9,10.4-26,9.9c0.2,0.1,0.4,0.1,0.5,0.2c5.5,1.6,12.2,1.6,18.4-0.7c3.9-1.4,7.6-3.6,10.8-6.7c1.4-1.4,2.7-3,3.8-4.8
				C67.5,50,69.4,42,68.6,34.2"/>
		</g>
		<g id="XMLID_1_">
			<path id="XMLID_128_" fill="#8AC440" d="M53.1,22c2.7,6.1,3,13.8-0.6,19.4c-0.7,1.3-1.6,2.4-2.7,3.4c-4.7,4.5-12.1,6.3-18.9,3.9
				c-0.1,0-0.2-0.1-0.3-0.1c-0.1,0-0.2-0.1-0.3-0.1c-8.7-3.2-14.5-12.3-13.9-20.9c0.2-4.6,2.3-8.7,5.2-11.8c1.8-1.9,4-3.4,6.3-4.4
				c-4.3,0.1-9.6,2.2-13.7,6.2c-2.4,2.5-4.3,5.6-5.3,9.3C5.5,38.1,13,53.9,26.5,58.6c0.2,0.1,0.4,0.1,0.6,0.2
				c0.2,0.1,0.4,0.2,0.6,0.2c6.6,2.3,13.5,1.5,19-1.3c2.2-1.1,4.2-2.5,5.9-4.2c2.1-2.2,3.8-4.8,4.7-7.6C60.8,37.1,57.6,27.3,53.1,22
				"/>
		</g>
	</g>
</g>
</svg>
