<?xml version="1.0" encoding="UTF-8"?>
<svg xmlns="http://www.w3.org/2000/svg" xmlns:xlink="http://www.w3.org/1999/xlink" width="694pt" height="164pt" viewBox="0 0 694 164" version="1.1">
<defs>
<clipPath id="clip1">
  <path d="M 18 8 L 83 8 L 83 152 L 18 152 Z M 18 8 "/>
</clipPath>
<clipPath id="clip2">
  <path d="M 70.660156 22.476563 L 18.832031 59.613281 L 81.035156 151.140625 L 132.835938 114.902344 L 131.96875 8.675781 L 81.898438 43.222656 Z M 70.660156 22.476563 "/>
</clipPath>
<clipPath id="clip3">
  <path d="M 82 8 L 133 8 L 133 121 L 82 121 Z M 82 8 "/>
</clipPath>
<clipPath id="clip4">
  <path d="M 70.660156 22.476563 L 18.832031 59.613281 L 81.035156 151.140625 L 132.835938 114.902344 L 131.96875 8.675781 L 81.898438 43.222656 Z M 70.660156 22.476563 "/>
</clipPath>
</defs>
<g id="surface1">
<path style=" stroke:none;fill-rule:nonzero;fill:rgb(92.89856%,10.998535%,14.099121%);fill-opacity:1;" d="M 0.710938 0.0351563 L 693.277344 0.0351563 L 693.277344 163.242188 L 0.710938 163.242188 L 0.710938 0.0351563 "/>
<path style=" stroke:none;fill-rule:nonzero;fill:rgb(0%,56.498718%,83.898926%);fill-opacity:1;" d="M 70.660156 22.476563 L 18.832031 59.613281 L 81.035156 151.140625 L 132.835938 114.902344 L 131.96875 8.675781 L 81.898438 43.222656 L 70.660156 22.476563 "/>
<g clip-path="url(#clip1)" clip-rule="nonzero">
<g clip-path="url(#clip2)" clip-rule="nonzero">
<path style=" stroke:none;fill-rule:nonzero;fill:rgb(100%,94.898987%,0%);fill-opacity:1;" d="M 82.761719 33.710938 L 82.761719 175.34375 L -10.527344 53.5625 L 60.289063 -14.660156 L 81.898438 -14.660156 L 82.761719 33.710938 "/>
</g>
</g>
<g clip-path="url(#clip3)" clip-rule="nonzero">
<g clip-path="url(#clip4)" clip-rule="nonzero">
<path style=" stroke:none;fill-rule:nonzero;fill:rgb(92.89856%,10.998535%,14.099121%);fill-opacity:1;" d="M 82.761719 44.085938 L 134.5625 120.054688 L 134.5625 -30.1875 Z M 82.761719 44.085938 "/>
</g>
</g>
<path style="fill:none;stroke-width:41.015;stroke-linecap:butt;stroke-linejoin:miter;stroke:rgb(100%,100%,100%);stroke-opacity:1;stroke-miterlimit:3.86371;" d="M 706.601563 1415.234375 L 188.320313 1043.867188 L 810.351563 128.59375 L 1328.359375 490.976563 L 1319.6875 1553.242188 L 818.984375 1207.773438 Z M 706.601563 1415.234375 " transform="matrix(0.1,0,0,-0.1,0,164)"/>
<path style=" stroke:none;fill-rule:evenodd;fill:rgb(100%,100%,100%);fill-opacity:1;" d="M 162.59375 116.011719 L 162.59375 76.816406 L 177.296875 76.816406 C 180.289063 76.816406 182.691406 77.214844 184.503906 78.007813 C 186.3125 78.800781 187.726563 80.023438 188.753906 81.667969 C 189.777344 83.316406 190.289063 85.042969 190.289063 86.84375 C 190.289063 88.515625 189.835938 90.09375 188.929688 91.574219 C 188.023438 93.050781 186.65625 94.246094 184.824219 95.15625 C 187.195313 95.851563 189.019531 97.035156 190.292969 98.710938 C 191.570313 100.386719 192.207031 102.367188 192.207031 104.648438 C 192.207031 106.484375 191.816406 108.191406 191.042969 109.769531 C 190.265625 111.34375 189.308594 112.5625 188.167969 113.417969 C 187.023438 114.273438 185.59375 114.917969 183.871094 115.355469 C 182.152344 115.792969 180.042969 116.011719 177.546875 116.011719 Z M 167.792969 93.292969 L 176.269531 93.292969 C 178.566406 93.292969 180.21875 93.140625 181.214844 92.839844 C 182.535156 92.445313 183.527344 91.792969 184.195313 90.882813 C 184.867188 89.96875 185.199219 88.824219 185.199219 87.449219 C 185.199219 86.144531 184.886719 84.996094 184.265625 84.003906 C 183.640625 83.011719 182.75 82.332031 181.589844 81.964844 C 180.429688 81.597656 178.445313 81.414063 175.628906 81.414063 L 167.792969 81.414063 Z M 167.792969 111.414063 L 177.558594 111.414063 C 179.234375 111.414063 180.410156 111.351563 181.089844 111.222656 C 182.285156 111.011719 183.28125 110.652344 184.085938 110.152344 C 184.890625 109.652344 185.550781 108.921875 186.066406 107.964844 C 186.582031 107.007813 186.84375 105.90625 186.84375 104.652344 C 186.84375 103.1875 186.464844 101.910156 185.714844 100.828125 C 184.960938 99.746094 183.921875 98.988281 182.59375 98.550781 C 181.265625 98.109375 179.351563 97.890625 176.855469 97.890625 L 167.792969 97.890625 L 167.792969 111.414063 "/>
<path style=" stroke:none;fill-rule:evenodd;fill:rgb(100%,100%,100%);fill-opacity:1;" d="M 217.21875 112.453125 C 215.425781 113.972656 213.707031 115.046875 212.054688 115.671875 C 210.402344 116.300781 208.632813 116.613281 206.738281 116.613281 C 203.617188 116.613281 201.214844 115.851563 199.535156 114.332031 C 197.859375 112.8125 197.019531 110.871094 197.019531 108.507813 C 197.019531 107.121094 197.335938 105.855469 197.96875 104.707031 C 198.605469 103.5625 199.433594 102.640625 200.460938 101.949219 C 201.484375 101.253906 202.644531 100.730469 203.929688 100.375 C 204.875 100.125 206.300781 99.886719 208.210938 99.65625 C 212.105469 99.191406 214.96875 98.640625 216.808594 98.003906 C 216.824219 97.34375 216.835938 96.925781 216.835938 96.75 C 216.835938 94.796875 216.378906 93.417969 215.46875 92.621094 C 214.234375 91.535156 212.402344 90.996094 209.972656 90.996094 C 207.703125 90.996094 206.027344 91.394531 204.945313 92.191406 C 203.867188 92.984375 203.066406 94.394531 202.546875 96.414063 L 197.839844 95.757813 C 198.269531 93.738281 198.976563 92.109375 199.957031 90.871094 C 200.941406 89.628906 202.363281 88.671875 204.222656 88.003906 C 206.082031 87.335938 208.234375 87 210.683594 87 C 213.117188 87 215.09375 87.285156 216.609375 87.855469 C 218.132813 88.425781 219.246094 89.148438 219.964844 90.011719 C 220.679688 90.878906 221.179688 91.972656 221.464844 93.292969 C 221.625 94.117188 221.707031 95.59375 221.707031 97.722656 L 221.707031 104.109375 C 221.707031 108.5625 221.804688 111.386719 222.003906 112.578125 C 222.203125 113.773438 222.597656 114.917969 223.183594 116.011719 L 218.148438 116.011719 C 217.664063 114.996094 217.355469 113.8125 217.21875 112.453125 Z M 216.835938 101.777344 C 215.082031 102.488281 212.453125 103.089844 208.949219 103.585938 C 206.964844 103.871094 205.5625 104.1875 204.738281 104.542969 C 203.917969 104.898438 203.28125 105.414063 202.835938 106.097656 C 202.386719 106.78125 202.164063 107.539063 202.164063 108.371094 C 202.164063 109.648438 202.652344 110.710938 203.621094 111.558594 C 204.597656 112.410156 206.019531 112.835938 207.894531 112.835938 C 209.75 112.835938 211.398438 112.433594 212.847656 111.628906 C 214.289063 110.820313 215.355469 109.71875 216.03125 108.320313 C 216.550781 107.238281 216.808594 105.640625 216.808594 103.53125 L 216.835938 101.777344 "/>
<path style=" stroke:none;fill-rule:nonzero;fill:rgb(100%,100%,100%);fill-opacity:1;" d="M 229.136719 116.011719 L 229.136719 87.601563 L 233.460938 87.601563 L 233.460938 91.636719 C 235.546875 88.546875 238.554688 87 242.488281 87 C 244.199219 87 245.769531 87.304688 247.203125 87.921875 C 248.636719 88.535156 249.707031 89.339844 250.421875 90.339844 C 251.132813 91.335938 251.628906 92.519531 251.914063 93.890625 C 252.09375 94.78125 252.183594 96.339844 252.183594 98.566406 L 252.183594 116.011719 L 247.367188 116.011719 L 247.367188 98.75 C 247.367188 96.789063 247.179688 95.324219 246.804688 94.351563 C 246.433594 93.382813 245.769531 92.605469 244.820313 92.027344 C 243.867188 91.449219 242.753906 91.160156 241.472656 91.160156 C 239.429688 91.160156 237.664063 91.808594 236.179688 93.109375 C 234.695313 94.410156 233.953125 96.878906 233.953125 100.511719 L 233.953125 116.011719 L 229.136719 116.011719 "/>
<path style=" stroke:none;fill-rule:nonzero;fill:rgb(100%,100%,100%);fill-opacity:1;" d="M 278.171875 105.609375 L 282.878906 106.265625 C 282.363281 109.503906 281.039063 112.035156 278.914063 113.867188 C 276.789063 115.699219 274.175781 116.613281 271.082031 116.613281 C 267.203125 116.613281 264.085938 115.34375 261.726563 112.8125 C 259.371094 110.277344 258.191406 106.644531 258.191406 101.914063 C 258.191406 98.855469 258.699219 96.175781 259.714844 93.882813 C 260.726563 91.589844 262.273438 89.867188 264.347656 88.71875 C 266.421875 87.574219 268.679688 87 271.117188 87 C 274.195313 87 276.714844 87.777344 278.675781 89.335938 C 280.632813 90.894531 281.886719 93.109375 282.441406 95.976563 L 277.789063 96.6875 C 277.339844 94.78125 276.550781 93.347656 275.417969 92.382813 C 274.285156 91.421875 272.914063 90.941406 271.308594 90.941406 C 268.882813 90.941406 266.910156 91.808594 265.394531 93.542969 C 263.875 95.277344 263.117188 98.023438 263.117188 101.78125 C 263.117188 105.589844 263.847656 108.355469 265.308594 110.082031 C 266.769531 111.808594 268.679688 112.671875 271.03125 112.671875 C 272.921875 112.671875 274.496094 112.09375 275.765625 110.941406 C 277.03125 109.785156 277.832031 108.007813 278.171875 105.609375 "/>
<path style=" stroke:none;fill-rule:evenodd;fill:rgb(100%,100%,100%);fill-opacity:1;" d="M 285.175781 101.804688 C 285.175781 96.558594 286.640625 92.671875 289.5625 90.148438 C 292.003906 88.046875 294.980469 87 298.492188 87 C 302.394531 87 305.585938 88.277344 308.0625 90.828125 C 310.539063 93.378906 311.78125 96.90625 311.78125 101.40625 C 311.78125 105.050781 311.230469 107.921875 310.136719 110.011719 C 309.039063 112.101563 307.445313 113.722656 305.351563 114.878906 C 303.253906 116.035156 300.96875 116.613281 298.492188 116.613281 C 294.515625 116.613281 291.304688 115.339844 288.855469 112.796875 C 286.402344 110.253906 285.175781 106.589844 285.175781 101.804688 Z M 290.105469 101.820313 C 290.105469 105.445313 290.898438 108.160156 292.488281 109.964844 C 294.078125 111.769531 296.078125 112.671875 298.492188 112.671875 C 300.886719 112.671875 302.878906 111.765625 304.46875 109.953125 C 306.058594 108.140625 306.855469 105.375 306.855469 101.660156 C 306.855469 98.15625 306.054688 95.503906 304.453125 93.703125 C 302.855469 91.898438 300.867188 90.996094 298.492188 90.996094 C 296.078125 90.996094 294.078125 91.894531 292.488281 93.6875 C 290.898438 95.484375 290.105469 98.195313 290.105469 101.820313 "/>
<path style=" stroke:none;fill-rule:evenodd;fill:rgb(100%,100%,100%);fill-opacity:1;" d="M 350.976563 116.011719 L 350.976563 112.40625 C 349.175781 115.210938 346.53125 116.613281 343.039063 116.613281 C 340.777344 116.613281 338.699219 115.992188 336.804688 114.746094 C 334.90625 113.5 333.4375 111.761719 332.394531 109.53125 C 331.351563 107.296875 330.832031 104.730469 330.832031 101.832031 C 330.832031 99.003906 331.304688 96.441406 332.246094 94.136719 C 333.191406 91.832031 334.605469 90.066406 336.492188 88.839844 C 338.378906 87.613281 340.488281 87 342.820313 87 C 344.53125 87 346.054688 87.359375 347.390625 88.085938 C 348.722656 88.808594 349.808594 89.753906 350.644531 90.914063 L 350.644531 76.816406 L 355.464844 76.816406 L 355.464844 116.011719 Z M 335.757813 101.847656 C 335.757813 105.472656 336.527344 108.183594 338.0625 109.980469 C 339.597656 111.773438 341.410156 112.671875 343.503906 112.671875 C 345.609375 112.671875 347.398438 111.816406 348.875 110.097656 C 350.347656 108.382813 351.085938 105.765625 351.085938 102.246094 C 351.085938 98.371094 350.335938 95.527344 348.835938 93.714844 C 347.335938 91.902344 345.484375 90.996094 343.285156 90.996094 C 341.144531 90.996094 339.351563 91.867188 337.914063 93.609375 C 336.476563 95.351563 335.757813 98.097656 335.757813 101.847656 "/>
<path style=" stroke:none;fill-rule:evenodd;fill:rgb(100%,100%,100%);fill-opacity:1;" d="M 382.492188 106.816406 L 387.476563 107.472656 C 386.695313 110.367188 385.246094 112.613281 383.128906 114.214844 C 381.015625 115.8125 378.3125 116.613281 375.019531 116.613281 C 370.878906 116.613281 367.59375 115.335938 365.167969 112.785156 C 362.738281 110.230469 361.527344 106.652344 361.527344 102.046875 C 361.527344 97.28125 362.753906 93.582031 365.207031 90.949219 C 367.660156 88.316406 370.84375 87 374.753906 87 C 378.542969 87 381.636719 88.289063 384.035156 90.867188 C 386.4375 93.449219 387.636719 97.078125 387.636719 101.757813 C 387.636719 102.042969 387.628906 102.46875 387.609375 103.039063 L 366.453125 103.039063 C 366.632813 106.152344 367.511719 108.535156 369.09375 110.191406 C 370.679688 111.84375 372.652344 112.671875 375.019531 112.671875 C 376.78125 112.671875 378.285156 112.207031 379.53125 111.273438 C 380.777344 110.34375 381.765625 108.855469 382.492188 106.816406 Z M 366.726563 99.097656 L 382.546875 99.097656 C 382.332031 96.707031 381.730469 94.914063 380.730469 93.722656 C 379.203125 91.867188 377.21875 90.941406 374.785156 90.941406 C 372.578125 90.941406 370.722656 91.679688 369.222656 93.160156 C 367.71875 94.640625 366.886719 96.617188 366.726563 99.097656 "/>
<path style=" stroke:none;fill-rule:nonzero;fill:rgb(100%,100%,100%);fill-opacity:1;" d="M 419.390625 116.011719 L 405.367188 76.816406 L 413.945313 76.816406 L 423.894531 105.828125 L 433.449219 76.816406 L 441.878906 76.816406 L 427.9375 116.011719 L 419.390625 116.011719 "/>
<path style=" stroke:none;fill-rule:evenodd;fill:rgb(100%,100%,100%);fill-opacity:1;" d="M 459.5 107.035156 L 467 108.292969 C 466.035156 111.039063 464.519531 113.132813 462.441406 114.566406 C 460.367188 116.003906 457.769531 116.722656 454.652344 116.722656 C 449.71875 116.722656 446.066406 115.105469 443.695313 111.875 C 441.824219 109.289063 440.890625 106.019531 440.890625 102.074219 C 440.890625 97.363281 442.117188 93.671875 444.574219 91.003906 C 447.03125 88.332031 450.136719 87 453.894531 87 C 458.113281 87 461.445313 88.394531 463.882813 91.1875 C 466.324219 93.980469 467.488281 98.257813 467.382813 104.023438 L 448.605469 104.023438 C 448.660156 106.253906 449.265625 107.984375 450.417969 109.226563 C 451.570313 110.464844 453.011719 111.085938 454.730469 111.085938 C 455.902344 111.085938 456.890625 110.765625 457.6875 110.125 C 458.488281 109.484375 459.09375 108.457031 459.5 107.035156 Z M 459.9375 99.425781 C 459.882813 97.242188 459.324219 95.585938 458.257813 94.449219 C 457.191406 93.316406 455.894531 92.746094 454.367188 92.746094 C 452.730469 92.746094 451.378906 93.347656 450.3125 94.542969 C 449.246094 95.742188 448.722656 97.367188 448.742188 99.425781 L 459.9375 99.425781 "/>
<path style=" stroke:none;fill-rule:nonzero;fill:rgb(100%,100%,100%);fill-opacity:1;" d="M 499.390625 116.011719 L 491.890625 116.011719 L 491.890625 101.535156 C 491.890625 98.472656 491.730469 96.492188 491.40625 95.59375 C 491.082031 94.691406 490.558594 93.992188 489.828125 93.496094 C 489.101563 92.996094 488.226563 92.746094 487.199219 92.746094 C 485.886719 92.746094 484.710938 93.101563 483.667969 93.816406 C 482.625 94.527344 481.910156 95.472656 481.523438 96.644531 C 481.136719 97.820313 480.945313 99.992188 480.945313 103.164063 L 480.945313 116.011719 L 473.445313 116.011719 L 473.445313 87.601563 L 480.398438 87.601563 L 480.398438 91.769531 C 482.886719 88.589844 486.019531 87 489.800781 87 C 491.464844 87 492.988281 87.296875 494.367188 87.894531 C 495.746094 88.492188 496.789063 89.253906 497.496094 90.179688 C 498.203125 91.105469 498.695313 92.15625 498.976563 93.332031 C 499.253906 94.507813 499.390625 96.1875 499.390625 98.378906 L 499.390625 116.011719 "/>
<path style=" stroke:none;fill-rule:evenodd;fill:rgb(100%,100%,100%);fill-opacity:1;" d="M 523.441406 107.035156 L 530.9375 108.292969 C 529.976563 111.039063 528.460938 113.132813 526.382813 114.566406 C 524.308594 116.003906 521.710938 116.722656 518.59375 116.722656 C 513.65625 116.722656 510.003906 115.105469 507.636719 111.875 C 505.765625 109.289063 504.828125 106.019531 504.828125 102.074219 C 504.828125 97.363281 506.058594 93.671875 508.515625 91.003906 C 510.972656 88.332031 514.078125 87 517.835938 87 C 522.054688 87 525.386719 88.394531 527.824219 91.1875 C 530.265625 93.980469 531.429688 98.257813 531.324219 104.023438 L 512.546875 104.023438 C 512.601563 106.253906 513.203125 107.984375 514.359375 109.226563 C 515.511719 110.464844 516.949219 111.085938 518.671875 111.085938 C 519.84375 111.085938 520.828125 110.765625 521.628906 110.125 C 522.429688 109.484375 523.03125 108.457031 523.441406 107.035156 Z M 523.878906 99.425781 C 523.824219 97.242188 523.265625 95.585938 522.199219 94.449219 C 521.132813 93.316406 519.835938 92.746094 518.308594 92.746094 C 516.671875 92.746094 515.320313 93.347656 514.253906 94.542969 C 513.1875 95.742188 512.664063 97.367188 512.683594 99.425781 L 523.878906 99.425781 "/>
<path style=" stroke:none;fill-rule:nonzero;fill:rgb(100%,100%,100%);fill-opacity:1;" d="M 534.429688 116.011719 L 534.429688 110.097656 L 545.0625 97.917969 C 546.808594 95.925781 548.097656 94.511719 548.9375 93.675781 C 548.0625 93.730469 546.914063 93.769531 545.488281 93.785156 L 535.46875 93.84375 L 535.46875 87.601563 L 558.953125 87.601563 L 558.953125 92.910156 L 548.105469 105.410156 L 544.28125 109.550781 C 546.367188 109.441406 547.65625 109.386719 548.15625 109.386719 L 559.773438 109.386719 L 559.773438 116.011719 L 534.429688 116.011719 "/>
<path style=" stroke:none;fill-rule:nonzero;fill:rgb(100%,100%,100%);fill-opacity:1;" d="M 583.640625 116.011719 L 583.640625 111.761719 C 582.605469 113.277344 581.242188 114.480469 579.554688 115.378906 C 577.867188 116.273438 576.085938 116.722656 574.210938 116.722656 C 572.300781 116.722656 570.585938 116.300781 569.066406 115.460938 C 567.550781 114.621094 566.449219 113.441406 565.773438 111.921875 C 565.09375 110.402344 564.753906 108.300781 564.753906 105.621094 L 564.753906 87.601563 L 572.253906 87.601563 L 572.253906 100.683594 C 572.253906 104.683594 572.394531 107.136719 572.671875 108.039063 C 572.945313 108.941406 573.453125 109.65625 574.1875 110.183594 C 574.917969 110.710938 575.847656 110.976563 576.976563 110.976563 C 578.265625 110.976563 579.417969 110.621094 580.4375 109.914063 C 581.457031 109.210938 582.152344 108.335938 582.527344 107.289063 C 582.90625 106.242188 583.09375 103.683594 583.09375 99.609375 L 583.09375 87.601563 L 590.59375 87.601563 L 590.59375 116.011719 L 583.640625 116.011719 "/>
<path style=" stroke:none;fill-rule:evenodd;fill:rgb(100%,100%,100%);fill-opacity:1;" d="M 614.75 107.035156 L 622.25 108.292969 C 621.285156 111.039063 619.769531 113.132813 617.691406 114.566406 C 615.617188 116.003906 613.019531 116.722656 609.902344 116.722656 C 604.96875 116.722656 601.316406 115.105469 598.945313 111.875 C 597.074219 109.289063 596.140625 106.019531 596.140625 102.074219 C 596.140625 97.363281 597.367188 93.671875 599.824219 91.003906 C 602.28125 88.332031 605.386719 87 609.144531 87 C 613.363281 87 616.695313 88.394531 619.132813 91.1875 C 621.574219 93.980469 622.738281 98.257813 622.632813 104.023438 L 603.855469 104.023438 C 603.910156 106.253906 604.515625 107.984375 605.667969 109.226563 C 606.824219 110.464844 608.261719 111.085938 609.984375 111.085938 C 611.152344 111.085938 612.140625 110.765625 612.9375 110.125 C 613.738281 109.484375 614.34375 108.457031 614.75 107.035156 Z M 615.1875 99.425781 C 615.132813 97.242188 614.574219 95.585938 613.507813 94.449219 C 612.441406 93.316406 611.144531 92.746094 609.617188 92.746094 C 607.980469 92.746094 606.628906 93.347656 605.5625 94.542969 C 604.496094 95.742188 603.972656 97.367188 603.992188 99.425781 L 615.1875 99.425781 "/>
<path style=" stroke:none;fill-rule:nonzero;fill:rgb(100%,100%,100%);fill-opacity:1;" d="M 628.804688 116.011719 L 628.804688 76.816406 L 636.304688 76.816406 L 636.304688 116.011719 L 628.804688 116.011719 "/>
<path style=" stroke:none;fill-rule:evenodd;fill:rgb(100%,100%,100%);fill-opacity:1;" d="M 649.566406 96.359375 L 642.777344 95.15625 C 643.546875 92.382813 644.863281 90.332031 646.734375 88.996094 C 648.605469 87.664063 651.386719 87 655.078125 87 C 658.429688 87 660.921875 87.394531 662.5625 88.1875 C 664.203125 88.980469 665.355469 89.988281 666.023438 91.207031 C 666.695313 92.425781 667.027344 94.667969 667.027344 97.925781 L 666.917969 106.6875 C 666.917969 109.179688 667.039063 111.019531 667.277344 112.203125 C 667.515625 113.386719 667.960938 114.65625 668.613281 116.011719 L 661.171875 116.011719 C 660.976563 115.519531 660.734375 114.785156 660.453125 113.816406 C 660.328125 113.378906 660.238281 113.085938 660.183594 112.945313 C 658.90625 114.203125 657.539063 115.148438 656.082031 115.777344 C 654.625 116.40625 653.070313 116.722656 651.417969 116.722656 C 648.503906 116.722656 646.210938 115.929688 644.53125 114.34375 C 642.851563 112.757813 642.011719 110.753906 642.011719 108.332031 C 642.011719 106.730469 642.394531 105.300781 643.160156 104.042969 C 643.925781 102.789063 644.996094 101.828125 646.378906 101.15625 C 647.757813 100.488281 649.746094 99.90625 652.347656 99.40625 C 655.855469 98.75 658.285156 98.132813 659.636719 97.5625 L 659.636719 96.804688 C 659.636719 95.34375 659.28125 94.300781 658.566406 93.679688 C 657.851563 93.058594 656.503906 92.746094 654.523438 92.746094 C 653.183594 92.746094 652.136719 93.015625 651.386719 93.546875 C 650.636719 94.082031 650.03125 95.019531 649.566406 96.359375 Z M 659.636719 102.433594 C 658.675781 102.757813 657.152344 103.140625 655.070313 103.585938 C 652.984375 104.03125 651.621094 104.464844 650.980469 104.894531 C 650 105.589844 649.511719 106.46875 649.511719 107.539063 C 649.511719 108.589844 649.902344 109.5 650.6875 110.265625 C 651.472656 111.03125 652.46875 111.414063 653.679688 111.414063 C 655.035156 111.414063 656.324219 110.96875 657.554688 110.078125 C 658.464844 109.398438 659.058594 108.570313 659.34375 107.59375 C 659.539063 106.949219 659.636719 105.730469 659.636719 103.929688 L 659.636719 102.433594 "/>
</g>
</svg>
