<?xml version="1.0" encoding="UTF-8" standalone="no"?>
<svg
   xmlns:dc="http://purl.org/dc/elements/1.1/"
   xmlns:cc="http://creativecommons.org/ns#"
   xmlns:rdf="http://www.w3.org/1999/02/22-rdf-syntax-ns#"
   xmlns:svg="http://www.w3.org/2000/svg"
   xmlns="http://www.w3.org/2000/svg"
   xmlns:sodipodi="http://sodipodi.sourceforge.net/DTD/sodipodi-0.dtd"
   xmlns:inkscape="http://www.inkscape.org/namespaces/inkscape"
   width="100"
   height="23"
   viewBox="0 0 100 23"
   version="1.1"
   id="svg13"
   sodipodi:docname="gggggggggggggggggggggg.svg"
   inkscape:version="0.92.4 (5da689c313, 2019-01-14)">
  <title
     id="title833">Banesco logo</title>
  <metadata
     id="metadata19">
    <rdf:RDF>
      <cc:Work
         rdf:about="">
        <dc:format>image/svg+xml</dc:format>
        <dc:type
           rdf:resource="http://purl.org/dc/dcmitype/StillImage" />
        <dc:title>Banesco logo</dc:title>
        <dc:date>2 sep 2020</dc:date>
      </cc:Work>
    </rdf:RDF>
  </metadata>
  <defs
     id="defs17" />
  <sodipodi:namedview
     pagecolor="#ffffff"
     bordercolor="#666666"
     borderopacity="1"
     objecttolerance="10"
     gridtolerance="10"
     guidetolerance="10"
     inkscape:pageopacity="0"
     inkscape:pageshadow="2"
     inkscape:window-width="1366"
     inkscape:window-height="705"
     id="namedview15"
     showgrid="false"
     inkscape:showpageshadow="false"
     inkscape:zoom="1"
     inkscape:cx="51.336482"
     inkscape:cy="12.877666"
     inkscape:window-x="-8"
     inkscape:window-y="-8"
     inkscape:window-maximized="1"
     inkscape:current-layer="svg13" />
  <rect
     id="backgroundrect"
     width="100%"
     height="100%"
     x="0"
     y="-99"
     style="fill:none;stroke:none" />
  <style
     id="style3">
    .s{fill-rule:evenodd;clip-rule:evenodd;fill:#2b5f8c}
  </style>
  <g
     class="currentLayer"
     id="g11"
     transform="matrix(0.1847009,0,0,0.1847009,0.49357387,0.2236104)">
    <title
       id="title5">Layer 1</title>
    <path
       d="m 69.900391,28.400391 c -9.5,0 -17.201172,7.699218 -17.201172,17.199218 0,1.4 0.2,2.801172 0.5,4.201172 h 0.201172 c 8.9,0 16.599609,5.09961 20.099609,12.59961 7.8,-1.6 13.599609,-8.500782 13.599609,-16.800782 0,-9.5 -7.699218,-17.199218 -17.199218,-17.199218 z m 47.499999,0.699218 v 69.201172 h 33.79883 v 0.09961 c 18,0 29.90039,-5.400391 29.90039,-20.900391 0,-7.5 -3.99961,-13.900391 -11.59961,-15.900391 4.4,-2.8 9.09961,-7.999609 9.09961,-15.099609 0,-13.7 -12.4,-17.400391 -28,-17.400391 z m 22.79883,16.201172 h 7.90039 c 4.8,0 9.30078,0.1 9.30078,5.5 0,4 -3.30078,6.09961 -7.80078,6.09961 h -9.40039 z M 214.90039,46.5 c -20,0 -27.59961,6.200391 -27.59961,16.900391 h 19.29883 c 0.5,-4.3 4.2,-4.900391 7,-4.900391 2.1,0 6.59961,0.499609 6.59961,4.099609 0,9.4 -36,-0.999609 -36,21.900391 0,10.5 8.5,15.199219 18,15.199219 7.5,0 13.3,-1.498828 19,-6.798828 l 1,5.40039 h 20.70117 v -0.90039 C 240.30039,95.300391 240.19922,93.8 240.19922,91 V 67.400391 c 0,-12 -1.39883,-20.900391 -25.29883,-20.900391 z m 176.40039,0 c -10.5,0 -23.90039,3.699609 -23.90039,16.599609 0,19.5 30.90039,13.09961 30.90039,21.09961 0,3.6 -3.30039,4.5 -6.40039,4.5 -1.9,0 -3.70039,-0.6 -4.90039,-1.5 -1.4,-1.1 -2.09961,-2.59961 -2.09961,-4.59961 H 366 v 0.09961 c 1.1,13.6 13.80078,17.101562 25.30078,17.101562 18.5,0 27.19922,-7.101562 27.19922,-17.601562 0,-18.8 -31.90039,-14.09961 -31.90039,-21.09961 0,-2.5 2.20117,-3.599609 5.70117,-3.599609 1.5,0 3,0.399219 4,1.199219 1.1,0.9 1.69844,2.001172 1.89844,3.701172 h 18.20117 C 415.20039,49.000391 402.30078,46.5 391.30078,46.5 Z M 449,46.5 c -16.7,0 -28.80078,9.899609 -28.80078,27.099609 0,17 12.50078,26.09961 28.80078,26.09961 14,0 26.3,-5.7 28,-21 h -20.19922 c -0.6,3.9 -2.60078,7.5 -7.80078,7.5 -5.9,0 -8.80078,-4.99961 -8.80078,-12.59961 0,-6 1.30078,-13.699218 8.80078,-13.699218 2.2,0 3.99922,0.7 5.19922,2 1.3,1.2 2.00156,2.999218 2.10156,5.199218 H 476.6875 C 475.23903,52.274733 462.46932,46.5 449,46.5 Z m 27.6875,20.599609 c 0.003,0.03377 0.009,0.06574 0.0117,0.09961 v -0.09961 z m -195.28711,-20.5 c -7.6,0 -12.49961,3.300782 -17.09961,9.300782 V 48 H 246 v 50.400391 h 0.0996 20 V 72.699219 c 0,-6.4 1.60078,-10.398438 7.80078,-10.398438 5.7,0 7,4.398438 7,9.398438 V 98.300781 H 301 V 68.199219 c 0,-13.8 -6.29961,-21.59961 -19.59961,-21.59961 z m 53.29883,0 c -16.2,0 -28.59961,10.59961 -28.59961,27.09961 0,16.9 12.50117,26.101562 28.70117,26.101562 11.8,0 24.5,-4.101562 28,-16.601562 h -19.20117 c -1.4,3 -4.3,4.40039 -7.5,4.40039 -5.3,0 -9.90039,-3.90039 -9.90039,-9.90039 h 38.20117 c 0.3,-18.3 -11.00117,-31.09961 -29.70117,-31.09961 z m 173.10156,0.09961 c -17,-0.1 -28.60156,9.601562 -28.60156,27.101562 0,17.2 12.50117,26.09961 28.70117,26.09961 16.2,0 28.69922,-8.69961 28.69922,-27.09961 0,-15.7 -10.99883,-26.101562 -28.79883,-26.101562 z M 335.5,58.800781 c 4.7,0 8.90039,4.099219 8.90039,8.699219 h -18.30078 c 0,-5.4 3.40039,-8.699219 9.40039,-8.699219 z M 508.09961,60 c 5.2,-0.3 8.5,5.299219 8.5,12.699219 0,9.5 -3.29922,13.601562 -8.69922,13.601562 -5.1,0 -8.70117,-4.101562 -8.70117,-13.601562 0.1,-5.7 2.10039,-12.699219 8.90039,-12.699219 z m -368,9.400391 h 7.20117 c 7.2,0 12.5,0.40039 12.5,6.40039 0,5.2 -4.20078,6.298828 -9.80078,6.298828 h -9.90039 z m 80,6.699218 c 0.5,6.9 -1.79883,12.400391 -8.79883,12.400391 -4,0 -6.40039,-1.699219 -6.40039,-4.199219 0,-6.5 8.69922,-5.001172 15.19922,-8.201172 z"
       id="svg_1"
       style="fill:#003c71;fill-opacity:1"
       inkscape:connector-curvature="0" />
    <path
       d="M 24.7,17.2 C 24.7,7.7 32.4,0 41.9,0 c 9.5,0 17.2,7.7 17.2,17.2 0,9.5 -7.7,17.2 -17.2,17.2 -9.5,0 -17.2,-7.7 -17.2,-17.2"
       id="svg_2"
       class=""
       inkscape:connector-curvature="0"
       style="fill:#007953" />
    <path
       d="m 36.2,72 c 0,-9.5 7.7,-17.2 17.2,-17.2 9.5,0 17.2,7.7 17.2,17.2 0,9.5 -7.7,17.2 -17.2,17.2 C 43.9,89.2 36.2,81.5 36.2,72 M 0,93.1 C 0,81.2 13.1,71.1 31.8,66.5 31.5,67.6 31.3,68.8 31.2,70 23.1,72.9 18,77.4 18,82.5 c 0,8.9 15.9,16 35.5,16 C 73.1,98.5 89,91.3 89,82.5 89,77.5 83.8,73 75.8,70 75.7,68.8 75.5,67.6 75.2,66.5 93.9,71 106.9,81.2 106.9,93 106.9,109 83,122 53.5,122 23.9,122.1 0,109.1 0,93.1"
       id="svg_4"
       class=""
       inkscape:connector-curvature="0"
       style="clip-rule:evenodd;fill:#e31d19;fill-rule:evenodd" />
  </g>
</svg>
