<?xml version="1.0" encoding="UTF-8"?>
<svg xmlns="http://www.w3.org/2000/svg" xmlns:xlink="http://www.w3.org/1999/xlink" width="111.75pt" height="66.75pt" viewBox="0 0 111.75 66.75" version="1.1">
<defs>
<clipPath id="clip1">
  <path d="M 10 0 L 111.75 0 L 111.75 49 L 10 49 Z M 10 0 "/>
</clipPath>
<clipPath id="clip2">
  <path d="M 106 53 L 111.75 53 L 111.75 60 L 106 60 Z M 106 53 "/>
</clipPath>
<clipPath id="clip3">
  <path d="M 76 62 L 80 62 L 80 66.75 L 76 66.75 Z M 76 62 "/>
</clipPath>
<clipPath id="clip4">
  <path d="M 79 63 L 83 63 L 83 66.75 L 79 66.75 Z M 79 63 "/>
</clipPath>
<clipPath id="clip5">
  <path d="M 82 63 L 85 63 L 85 66.75 L 82 66.75 Z M 82 63 "/>
</clipPath>
<clipPath id="clip6">
  <path d="M 85 63 L 88 63 L 88 66.75 L 85 66.75 Z M 85 63 "/>
</clipPath>
<clipPath id="clip7">
  <path d="M 87 63 L 91 63 L 91 66.75 L 87 66.75 Z M 87 63 "/>
</clipPath>
<clipPath id="clip8">
  <path d="M 91 62 L 95 62 L 95 66.75 L 91 66.75 Z M 91 62 "/>
</clipPath>
<clipPath id="clip9">
  <path d="M 95 63 L 98 63 L 98 66.75 L 95 66.75 Z M 95 63 "/>
</clipPath>
<clipPath id="clip10">
  <path d="M 97 62 L 99 62 L 99 66.75 L 97 66.75 Z M 97 62 "/>
</clipPath>
<clipPath id="clip11">
  <path d="M 98 63 L 102 63 L 102 66.75 L 98 66.75 Z M 98 63 "/>
</clipPath>
<clipPath id="clip12">
  <path d="M 101 63 L 104 63 L 104 66.75 L 101 66.75 Z M 101 63 "/>
</clipPath>
<clipPath id="clip13">
  <path d="M 104 63 L 106 63 L 106 66.75 L 104 66.75 Z M 104 63 "/>
</clipPath>
<clipPath id="clip14">
  <path d="M 105 63 L 108 63 L 108 66.75 L 105 66.75 Z M 105 63 "/>
</clipPath>
<clipPath id="clip15">
  <path d="M 108 63 L 111 63 L 111 66.75 L 108 66.75 Z M 108 63 "/>
</clipPath>
<clipPath id="clip16">
  <path d="M 110 62 L 111.75 62 L 111.75 66.75 L 110 66.75 Z M 110 62 "/>
</clipPath>
</defs>
<g id="surface1">
<path style=" stroke:none;fill-rule:evenodd;fill:rgb(100%,100%,100%);fill-opacity:1;" d="M 0 66.75 L 111.75 66.75 L 111.75 0 L 0 0 Z M 0 66.75 "/>
<g clip-path="url(#clip1)" clip-rule="nonzero">
<path style=" stroke:none;fill-rule:nonzero;fill:rgb(12.199402%,27.099609%,59.599304%);fill-opacity:1;" d="M 111.449219 0.679688 L 111.460938 48.78125 L 89.808594 48.78125 C 97.539063 48.121094 103.980469 43.011719 106.269531 35.460938 L 96.78125 35.460938 C 94.96875 38.648438 91.789063 40.640625 88.082031 40.640625 C 82.621094 40.640625 78.199219 36.21875 78.199219 30.761719 C 78.199219 25.300781 82.621094 20.878906 88.082031 20.878906 C 91.78125 20.878906 94.949219 22.859375 96.761719 26.03125 L 106.269531 26.03125 C 103.789063 17.941406 96.558594 12.667969 88.082031 12.667969 C 77.691406 12.667969 69.25 20.761719 69.25 30.761719 C 69.25 40.210938 76.78125 47.949219 86.371094 48.78125 L 54.539063 48.78125 L 54.519531 35.011719 L 68.058594 35.011719 L 68 27.210938 L 54.519531 27.210938 L 54.539063 21.359375 L 71.25 21.359375 L 71.417969 12.621094 L 17.710938 12.679688 L 17.710938 18.261719 L 10.03125 18.261719 L 10.03125 0.679688 L 111.449219 0.679688 "/>
</g>
<path style=" stroke:none;fill-rule:evenodd;fill:rgb(90.59906%,11.399841%,18.798828%);fill-opacity:1;" d="M 53.941406 48.78125 L 45.519531 48.78125 C 48.980469 46.558594 49.929688 43.371094 49.929688 40.628906 C 49.929688 32.800781 43.109375 31.589844 40.730469 31.167969 C 42.640625 30.582031 48.871094 29.160156 48.871094 22.390625 C 48.871094 19.011719 47.179688 16.949219 45.96875 15.839844 C 44.417969 14.449219 42.589844 13.679688 40.609375 13.261719 L 70.800781 13.230469 L 70.660156 20.761719 L 53.941406 20.761719 L 53.910156 27.808594 L 67.398438 27.808594 L 67.460938 34.410156 L 53.910156 34.410156 L 53.941406 48.78125 "/>
<path style=" stroke:none;fill-rule:nonzero;fill:rgb(12.199402%,27.099609%,59.599304%);fill-opacity:1;" d="M 27.730469 19.640625 L 33.488281 19.640625 C 34.601563 19.640625 35.761719 19.640625 36.929688 20.539063 C 37.980469 21.390625 38.410156 22.761719 38.410156 23.929688 C 38.410156 25.558594 37.609375 26.941406 36.398438 27.621094 C 35.5 28.101563 34.390625 28.101563 32.699219 28.101563 L 27.730469 28.101563 L 27.730469 19.640625 "/>
<path style=" stroke:none;fill-rule:nonzero;fill:rgb(12.199402%,27.099609%,59.599304%);fill-opacity:1;" d="M 27.78125 34.871094 L 33.332031 34.871094 C 34.761719 34.871094 39.089844 34.871094 39.089844 39.460938 C 39.089844 43.898438 34.871094 43.898438 33.648438 43.898438 L 27.78125 43.898438 L 27.78125 34.871094 "/>
<path style=" stroke:none;fill-rule:nonzero;fill:rgb(95.298767%,61.599731%,13.299561%);fill-opacity:1;" d="M 0.507813 27.789063 L 10.039063 27.789063 L 10.039063 18.261719 L 17.710938 18.261719 L 17.710938 27.789063 L 27.238281 27.789063 L 27.238281 35.460938 L 17.710938 35.460938 L 17.710938 44.988281 L 10.039063 44.988281 L 10.039063 35.460938 L 0.507813 35.460938 L 0.507813 27.789063 "/>
<path style=" stroke:none;fill-rule:nonzero;fill:rgb(95.298767%,61.599731%,13.299561%);fill-opacity:1;" d="M 88.082031 13.269531 C 78 13.269531 69.851563 21.109375 69.851563 30.761719 C 69.851563 40.410156 78 48.25 88.082031 48.25 C 96.230469 48.25 103.121094 43.121094 105.460938 36.058594 L 97.128906 36.058594 C 95.308594 39.160156 91.941406 41.238281 88.082031 41.238281 C 82.289063 41.238281 77.601563 36.550781 77.601563 30.761719 C 77.601563 24.96875 82.289063 20.28125 88.082031 20.28125 C 91.917969 20.28125 95.28125 22.351563 97.109375 25.429688 L 105.449219 25.429688 C 103.101563 18.378906 96.21875 13.269531 88.082031 13.269531 "/>
<path style=" stroke:none;fill-rule:nonzero;fill:rgb(12.199402%,27.099609%,59.599304%);fill-opacity:1;" d="M 12.28125 56 L 13.949219 56 C 14.582031 56 15.070313 56.238281 15.070313 56.941406 C 15.070313 57.601563 14.609375 57.839844 13.949219 57.839844 L 12.28125 57.839844 Z M 10.199219 59.511719 L 14.039063 59.511719 C 15.75 59.511719 17.148438 58.917969 17.148438 57.019531 C 17.148438 56.109375 16.628906 55.371094 15.78125 55.128906 C 16.398438 54.808594 16.832031 54.230469 16.832031 53.511719 C 16.832031 51.851563 15.320313 51.488281 13.941406 51.511719 L 10.199219 51.511719 Z M 12.28125 53.121094 L 13.898438 53.121094 C 14.332031 53.121094 14.75 53.308594 14.75 53.898438 C 14.75 54.46875 14.25 54.660156 13.898438 54.660156 L 12.28125 54.660156 L 12.28125 53.121094 "/>
<path style=" stroke:none;fill-rule:nonzero;fill:rgb(12.199402%,27.099609%,59.599304%);fill-opacity:1;" d="M 19.570313 57.839844 C 19.570313 57.378906 19.929688 57.199219 20.351563 57.101563 C 20.769531 56.988281 21.261719 56.949219 21.53125 56.789063 C 21.582031 57.980469 21.269531 58.5 20.371094 58.5 C 19.941406 58.5 19.570313 58.308594 19.570313 57.839844 Z M 19.679688 55.488281 C 19.769531 54.988281 20.109375 54.761719 20.628906 54.761719 C 21.03125 54.761719 21.550781 54.929688 21.550781 55.359375 C 21.550781 55.71875 21.371094 55.832031 21.050781 55.898438 C 19.730469 56.167969 17.667969 56.019531 17.667969 57.917969 C 17.667969 59.109375 18.539063 59.679688 19.648438 59.679688 C 20.339844 59.679688 21.070313 59.46875 21.558594 58.960938 C 21.589844 59.148438 21.609375 59.332031 21.679688 59.511719 L 23.589844 59.511719 C 23.371094 59.050781 23.371094 58.511719 23.371094 58.019531 L 23.371094 55.46875 C 23.371094 53.832031 22.03125 53.53125 20.660156 53.53125 C 20 53.53125 19.320313 53.640625 18.808594 53.929688 C 18.289063 54.230469 17.929688 54.71875 17.898438 55.488281 L 19.679688 55.488281 "/>
<path style=" stroke:none;fill-rule:nonzero;fill:rgb(12.199402%,27.099609%,59.599304%);fill-opacity:1;" d="M 24.390625 59.511719 L 26.300781 59.511719 L 26.300781 56.339844 C 26.300781 55.699219 26.609375 55.089844 27.332031 55.089844 C 28.371094 55.089844 28.28125 55.898438 28.28125 56.699219 L 28.28125 59.511719 L 30.191406 59.511719 L 30.191406 55.78125 C 30.191406 54.941406 30.03125 53.53125 28.089844 53.53125 C 27.398438 53.53125 26.609375 53.898438 26.269531 54.488281 L 26.238281 54.488281 L 26.238281 53.691406 L 24.390625 53.691406 L 24.390625 59.511719 "/>
<path style=" stroke:none;fill-rule:nonzero;fill:rgb(12.199402%,27.099609%,59.599304%);fill-opacity:1;" d="M 36.859375 55.820313 C 36.730469 54.289063 35.441406 53.53125 33.988281 53.53125 C 32.121094 53.53125 30.949219 54.851563 30.949219 56.699219 C 30.949219 58.480469 32.238281 59.679688 33.988281 59.679688 C 35.539063 59.679688 36.75 58.78125 36.917969 57.21875 L 35.070313 57.21875 C 34.980469 57.839844 34.640625 58.21875 33.980469 58.21875 C 33.167969 58.21875 32.851563 57.449219 32.851563 56.699219 C 32.851563 55.890625 33.019531 54.980469 34.082031 54.980469 C 34.558594 54.980469 35 55.332031 35.011719 55.820313 L 36.859375 55.820313 "/>
<path style=" stroke:none;fill-rule:nonzero;fill:rgb(12.199402%,27.099609%,59.599304%);fill-opacity:1;" d="M 39.261719 56.609375 C 39.261719 55.871094 39.53125 54.980469 40.417969 54.980469 C 41.300781 54.980469 41.582031 55.871094 41.582031 56.609375 C 41.582031 57.351563 41.300781 58.21875 40.417969 58.21875 C 39.53125 58.21875 39.261719 57.351563 39.261719 56.609375 Z M 37.359375 56.609375 C 37.359375 58.351563 38.609375 59.679688 40.417969 59.679688 C 42.21875 59.679688 43.488281 58.351563 43.488281 56.609375 C 43.488281 54.859375 42.21875 53.53125 40.417969 53.53125 C 38.609375 53.53125 37.359375 54.859375 37.359375 56.609375 "/>
<path style=" stroke:none;fill-rule:nonzero;fill:rgb(12.199402%,27.099609%,59.599304%);fill-opacity:1;" d="M 44.46875 59.511719 L 45.871094 59.511719 L 45.871094 55.960938 L 49.488281 55.960938 L 49.488281 54.808594 L 45.871094 54.808594 L 45.871094 52.71875 L 49.988281 52.71875 L 49.988281 51.511719 L 44.46875 51.511719 L 44.46875 59.511719 "/>
<path style=" stroke:none;fill-rule:nonzero;fill:rgb(12.199402%,27.099609%,59.599304%);fill-opacity:1;" d="M 53.359375 58.660156 C 52.21875 58.660156 51.710938 57.609375 51.710938 56.609375 C 51.710938 55.609375 52.21875 54.570313 53.359375 54.570313 C 54.5 54.570313 55.011719 55.609375 55.011719 56.609375 C 55.011719 57.609375 54.5 58.660156 53.359375 58.660156 Z M 53.359375 59.660156 C 55.21875 59.660156 56.28125 58.390625 56.28125 56.609375 C 56.28125 54.839844 55.21875 53.558594 53.359375 53.558594 C 51.5 53.558594 50.441406 54.839844 50.441406 56.609375 C 50.441406 58.390625 51.5 59.660156 53.359375 59.660156 "/>
<path style=" stroke:none;fill-rule:nonzero;fill:rgb(12.199402%,27.099609%,59.599304%);fill-opacity:1;" d="M 57.121094 59.511719 L 58.398438 59.511719 L 58.398438 56.089844 C 58.398438 55.238281 58.949219 54.570313 59.800781 54.570313 C 60.550781 54.570313 60.910156 54.960938 60.929688 55.871094 L 60.929688 59.511719 L 62.210938 59.511719 L 62.210938 55.53125 C 62.210938 54.230469 61.410156 53.558594 60.148438 53.558594 C 59.390625 53.558594 58.730469 53.949219 58.351563 54.589844 L 58.332031 54.570313 L 58.332031 53.71875 L 57.121094 53.71875 L 57.121094 59.511719 "/>
<path style=" stroke:none;fill-rule:nonzero;fill:rgb(12.199402%,27.099609%,59.599304%);fill-opacity:1;" d="M 64.320313 56.667969 C 64.320313 55.628906 64.75 54.570313 65.941406 54.570313 C 66.929688 54.570313 67.550781 55.332031 67.550781 56.609375 C 67.550781 57.609375 67.058594 58.660156 65.917969 58.660156 C 64.808594 58.660156 64.320313 57.667969 64.320313 56.667969 Z M 68.78125 51.511719 L 67.5 51.511719 L 67.5 54.46875 L 67.480469 54.46875 C 67.089844 53.832031 66.28125 53.558594 65.550781 53.558594 C 64.289063 53.558594 63.039063 54.480469 63.039063 56.570313 C 63.039063 58.308594 63.929688 59.660156 65.75 59.660156 C 66.480469 59.660156 67.210938 59.378906 67.550781 58.71875 L 67.570313 58.71875 L 67.570313 59.511719 L 68.78125 59.511719 L 68.78125 51.511719 "/>
<path style=" stroke:none;fill-rule:nonzero;fill:rgb(12.199402%,27.099609%,59.599304%);fill-opacity:1;" d="M 72.589844 58.660156 C 71.449219 58.660156 70.949219 57.609375 70.949219 56.609375 C 70.949219 55.609375 71.449219 54.570313 72.589844 54.570313 C 73.738281 54.570313 74.238281 55.609375 74.238281 56.609375 C 74.238281 57.609375 73.738281 58.660156 72.589844 58.660156 Z M 72.589844 59.660156 C 74.449219 59.660156 75.519531 58.390625 75.519531 56.609375 C 75.519531 54.839844 74.449219 53.558594 72.589844 53.558594 C 70.730469 53.558594 69.667969 54.839844 69.667969 56.609375 C 69.667969 58.390625 70.730469 59.660156 72.589844 59.660156 "/>
<path style=" stroke:none;fill-rule:nonzero;fill:rgb(12.199402%,27.099609%,59.599304%);fill-opacity:1;" d="M 83.332031 54.050781 C 83.160156 52.332031 81.738281 51.332031 79.941406 51.320313 C 77.539063 51.320313 76.109375 53.21875 76.109375 55.511719 C 76.109375 57.789063 77.539063 59.699219 79.941406 59.699219 C 81.878906 59.699219 83.230469 58.378906 83.339844 56.460938 L 81.980469 56.460938 C 81.859375 57.628906 81.179688 58.558594 79.941406 58.558594 C 78.21875 58.558594 77.511719 57.039063 77.511719 55.511719 C 77.511719 53.96875 78.21875 52.460938 79.941406 52.460938 C 81.101563 52.460938 81.699219 53.128906 81.929688 54.050781 L 83.332031 54.050781 "/>
<path style=" stroke:none;fill-rule:nonzero;fill:rgb(12.199402%,27.099609%,59.599304%);fill-opacity:1;" d="M 86.871094 58.660156 C 85.730469 58.660156 85.21875 57.609375 85.21875 56.609375 C 85.21875 55.609375 85.730469 54.570313 86.871094 54.570313 C 88.011719 54.570313 88.511719 55.609375 88.511719 56.609375 C 88.511719 57.609375 88.011719 58.660156 86.871094 58.660156 Z M 86.871094 59.660156 C 88.730469 59.660156 89.789063 58.390625 89.789063 56.609375 C 89.789063 54.839844 88.730469 53.558594 86.871094 53.558594 C 85.011719 53.558594 83.941406 54.839844 83.941406 56.609375 C 83.941406 58.390625 85.011719 59.660156 86.871094 59.660156 "/>
<path style=" stroke:none;fill-rule:nonzero;fill:rgb(12.199402%,27.099609%,59.599304%);fill-opacity:1;" d="M 90.628906 59.511719 L 91.898438 59.511719 L 91.898438 56.070313 C 91.898438 55.101563 92.511719 54.570313 93.167969 54.570313 C 93.941406 54.570313 94.191406 54.988281 94.191406 55.789063 L 94.191406 59.511719 L 95.46875 59.511719 L 95.46875 56.109375 C 95.46875 55.140625 95.839844 54.570313 96.699219 54.570313 C 97.699219 54.570313 97.75 55.210938 97.75 56.121094 L 97.75 59.511719 L 99.03125 59.511719 L 99.03125 55.511719 C 99.03125 54.101563 98.308594 53.558594 97.089844 53.558594 C 96.25 53.558594 95.699219 53.929688 95.28125 54.519531 C 95.019531 53.859375 94.359375 53.558594 93.648438 53.558594 C 92.730469 53.558594 92.25 53.949219 91.871094 54.519531 L 91.839844 54.519531 L 91.839844 53.71875 L 90.628906 53.71875 L 90.628906 59.511719 "/>
<path style=" stroke:none;fill-rule:nonzero;fill:rgb(12.199402%,27.099609%,59.599304%);fill-opacity:1;" d="M 101.851563 52.917969 L 102.78125 52.917969 L 104.371094 51.320313 L 102.859375 51.320313 Z M 105.230469 53.71875 L 103.949219 53.71875 L 103.949219 57.082031 C 103.949219 57.96875 103.601563 58.660156 102.53125 58.660156 C 101.839844 58.660156 101.421875 58.289063 101.421875 57.269531 L 101.421875 53.71875 L 100.148438 53.71875 L 100.148438 57.390625 C 100.148438 58.898438 100.800781 59.660156 102.308594 59.660156 C 102.949219 59.660156 103.640625 59.28125 103.949219 58.699219 L 103.980469 58.699219 L 103.980469 59.511719 L 105.230469 59.511719 L 105.230469 53.71875 "/>
<g clip-path="url(#clip2)" clip-rule="nonzero">
<path style=" stroke:none;fill-rule:nonzero;fill:rgb(12.199402%,27.099609%,59.599304%);fill-opacity:1;" d="M 106.351563 59.511719 L 107.628906 59.511719 L 107.628906 56.089844 C 107.628906 55.238281 108.179688 54.570313 109.03125 54.570313 C 109.78125 54.570313 110.140625 54.960938 110.160156 55.871094 L 110.160156 59.511719 L 111.429688 59.511719 L 111.429688 55.53125 C 111.429688 54.230469 110.640625 53.558594 109.378906 53.558594 C 108.621094 53.558594 107.960938 53.949219 107.578125 54.589844 L 107.558594 54.570313 L 107.558594 53.71875 L 106.351563 53.71875 L 106.351563 59.511719 "/>
</g>
<g clip-path="url(#clip3)" clip-rule="nonzero">
<path style=" stroke:none;fill-rule:nonzero;fill:rgb(12.199402%,27.099609%,59.599304%);fill-opacity:1;" d="M 77.441406 63.230469 L 78.429688 63.230469 C 78.761719 63.230469 78.941406 63.351563 78.941406 63.699219 C 78.941406 64.011719 78.71875 64.179688 78.429688 64.179688 L 77.441406 64.179688 Z M 76.839844 66.191406 L 78.417969 66.191406 C 79.320313 66.191406 79.699219 65.769531 79.699219 65.21875 C 79.699219 64.75 79.46875 64.429688 79.050781 64.339844 L 79.050781 64.332031 C 79.359375 64.191406 79.539063 63.941406 79.539063 63.589844 C 79.539063 63.019531 79.128906 62.738281 78.519531 62.738281 L 76.839844 62.738281 Z M 77.441406 64.621094 L 78.511719 64.621094 C 78.878906 64.621094 79.089844 64.808594 79.089844 65.148438 C 79.089844 65.488281 78.878906 65.691406 78.511719 65.691406 L 77.441406 65.691406 L 77.441406 64.621094 "/>
</g>
<g clip-path="url(#clip4)" clip-rule="nonzero">
<path style=" stroke:none;fill-rule:nonzero;fill:rgb(12.199402%,27.099609%,59.599304%);fill-opacity:1;" d="M 82.148438 64.339844 C 82.148438 63.820313 81.640625 63.621094 81.148438 63.621094 C 80.601563 63.621094 80.058594 63.808594 80.019531 64.449219 L 80.570313 64.449219 C 80.589844 64.179688 80.808594 64.058594 81.121094 64.058594 C 81.339844 64.058594 81.628906 64.109375 81.628906 64.390625 C 81.628906 64.71875 81.28125 64.667969 80.890625 64.75 C 80.417969 64.800781 79.929688 64.898438 79.929688 65.519531 C 79.929688 66.007813 80.332031 66.25 80.78125 66.25 C 81.070313 66.25 81.429688 66.160156 81.640625 65.949219 C 81.691406 66.179688 81.851563 66.25 82.070313 66.25 C 82.160156 66.25 82.339844 66.21875 82.417969 66.191406 L 82.417969 65.808594 C 82.359375 65.820313 82.320313 65.820313 82.28125 65.820313 C 82.179688 65.820313 82.148438 65.769531 82.148438 65.628906 Z M 81.601563 65.339844 C 81.601563 65.691406 81.21875 65.820313 80.980469 65.820313 C 80.789063 65.820313 80.480469 65.738281 80.480469 65.5 C 80.480469 65.210938 80.691406 65.121094 80.929688 65.082031 C 81.167969 65.039063 81.429688 65.039063 81.601563 64.929688 L 81.601563 65.339844 "/>
</g>
<g clip-path="url(#clip5)" clip-rule="nonzero">
<path style=" stroke:none;fill-rule:nonzero;fill:rgb(12.199402%,27.099609%,59.599304%);fill-opacity:1;" d="M 82.761719 66.191406 L 83.308594 66.191406 L 83.308594 64.710938 C 83.308594 64.339844 83.539063 64.058594 83.910156 64.058594 C 84.230469 64.058594 84.390625 64.21875 84.398438 64.621094 L 84.398438 66.191406 L 84.949219 66.191406 L 84.949219 64.46875 C 84.949219 63.910156 84.609375 63.621094 84.070313 63.621094 C 83.738281 63.621094 83.449219 63.789063 83.289063 64.058594 L 83.28125 64.058594 L 83.28125 63.691406 L 82.761719 63.691406 L 82.761719 66.191406 "/>
</g>
<g clip-path="url(#clip6)" clip-rule="nonzero">
<path style=" stroke:none;fill-rule:nonzero;fill:rgb(12.199402%,27.099609%,59.599304%);fill-opacity:1;" d="M 87.609375 64.519531 C 87.558594 63.910156 87.058594 63.621094 86.480469 63.621094 C 85.660156 63.621094 85.25 64.210938 85.25 64.960938 C 85.25 65.699219 85.679688 66.25 86.46875 66.25 C 87.109375 66.25 87.511719 65.890625 87.609375 65.25 L 87.058594 65.25 C 87.011719 65.601563 86.78125 65.820313 86.46875 65.820313 C 85.988281 65.820313 85.800781 65.378906 85.800781 64.960938 C 85.800781 64.199219 86.199219 64.058594 86.488281 64.058594 C 86.789063 64.058594 87.019531 64.21875 87.058594 64.519531 L 87.609375 64.519531 "/>
</g>
<g clip-path="url(#clip7)" clip-rule="nonzero">
<path style=" stroke:none;fill-rule:nonzero;fill:rgb(12.199402%,27.099609%,59.599304%);fill-opacity:1;" d="M 89.160156 66.25 C 89.960938 66.25 90.417969 65.699219 90.417969 64.929688 C 90.417969 64.167969 89.960938 63.621094 89.160156 63.621094 C 88.359375 63.621094 87.898438 64.167969 87.898438 64.929688 C 87.898438 65.699219 88.359375 66.25 89.160156 66.25 Z M 89.160156 65.820313 C 88.660156 65.820313 88.449219 65.371094 88.449219 64.929688 C 88.449219 64.5 88.660156 64.058594 89.160156 64.058594 C 89.648438 64.058594 89.871094 64.5 89.871094 64.929688 C 89.871094 65.371094 89.648438 65.820313 89.160156 65.820313 "/>
</g>
<g clip-path="url(#clip8)" clip-rule="nonzero">
<path style=" stroke:none;fill-rule:nonzero;fill:rgb(12.199402%,27.099609%,59.599304%);fill-opacity:1;" d="M 91.910156 64.941406 C 91.910156 65.828125 92.46875 66.269531 93.332031 66.269531 C 94.179688 66.269531 94.738281 65.828125 94.738281 64.941406 L 94.738281 62.738281 L 94.140625 62.738281 L 94.140625 64.75 C 94.140625 65.210938 94.109375 65.738281 93.332031 65.738281 C 92.539063 65.738281 92.511719 65.210938 92.511719 64.75 L 92.511719 62.738281 L 91.910156 62.738281 L 91.910156 64.941406 "/>
</g>
<g clip-path="url(#clip9)" clip-rule="nonzero">
<path style=" stroke:none;fill-rule:nonzero;fill:rgb(12.199402%,27.099609%,59.599304%);fill-opacity:1;" d="M 95.160156 66.191406 L 95.710938 66.191406 L 95.710938 64.710938 C 95.710938 64.339844 95.941406 64.058594 96.308594 64.058594 C 96.628906 64.058594 96.789063 64.21875 96.800781 64.621094 L 96.800781 66.191406 L 97.351563 66.191406 L 97.351563 64.46875 C 97.351563 63.910156 97.011719 63.621094 96.46875 63.621094 C 96.140625 63.621094 95.851563 63.789063 95.691406 64.058594 L 95.679688 64.058594 L 95.679688 63.691406 L 95.160156 63.691406 L 95.160156 66.191406 "/>
</g>
<g clip-path="url(#clip10)" clip-rule="nonzero">
<path style=" stroke:none;fill-rule:nonzero;fill:rgb(12.199402%,27.099609%,59.599304%);fill-opacity:1;" d="M 97.898438 63.261719 L 98.449219 63.261719 L 98.449219 62.738281 L 97.898438 62.738281 Z M 97.898438 66.191406 L 98.449219 66.191406 L 98.449219 63.691406 L 97.898438 63.691406 L 97.898438 66.191406 "/>
</g>
<g clip-path="url(#clip11)" clip-rule="nonzero">
<path style=" stroke:none;fill-rule:nonzero;fill:rgb(12.199402%,27.099609%,59.599304%);fill-opacity:1;" d="M 99.660156 66.191406 L 100.28125 66.191406 L 101.179688 63.691406 L 100.609375 63.691406 L 100 65.601563 L 99.988281 65.601563 L 99.351563 63.691406 L 98.761719 63.691406 L 99.660156 66.191406 "/>
</g>
<g clip-path="url(#clip12)" clip-rule="nonzero">
<path style=" stroke:none;fill-rule:nonzero;fill:rgb(12.199402%,27.099609%,59.599304%);fill-opacity:1;" d="M 101.890625 64.71875 C 101.910156 64.339844 102.171875 64.058594 102.550781 64.058594 C 102.921875 64.058594 103.160156 64.371094 103.179688 64.71875 Z M 103.730469 65.082031 C 103.820313 64.332031 103.339844 63.621094 102.550781 63.621094 C 101.808594 63.621094 101.339844 64.230469 101.339844 64.941406 C 101.339844 65.710938 101.78125 66.25 102.558594 66.25 C 103.109375 66.25 103.570313 65.949219 103.691406 65.398438 L 103.171875 65.398438 C 103.078125 65.679688 102.878906 65.820313 102.558594 65.820313 C 102.101563 65.820313 101.890625 65.46875 101.890625 65.082031 L 103.730469 65.082031 "/>
</g>
<g clip-path="url(#clip13)" clip-rule="nonzero">
<path style=" stroke:none;fill-rule:nonzero;fill:rgb(12.199402%,27.099609%,59.599304%);fill-opacity:1;" d="M 104.101563 66.191406 L 104.648438 66.191406 L 104.648438 65 C 104.648438 64.449219 104.949219 64.140625 105.328125 64.140625 C 105.410156 64.140625 105.488281 64.160156 105.570313 64.160156 L 105.570313 63.628906 C 105.519531 63.628906 105.480469 63.621094 105.359375 63.621094 C 105.019531 63.621094 104.691406 63.898438 104.628906 64.167969 L 104.621094 64.167969 L 104.621094 63.691406 L 104.101563 63.691406 L 104.101563 66.191406 "/>
</g>
<g clip-path="url(#clip14)" clip-rule="nonzero">
<path style=" stroke:none;fill-rule:nonzero;fill:rgb(12.199402%,27.099609%,59.599304%);fill-opacity:1;" d="M 105.621094 65.378906 C 105.628906 65.96875 106.101563 66.25 106.730469 66.25 C 107.238281 66.25 107.839844 66.039063 107.839844 65.441406 C 107.839844 64.949219 107.441406 64.800781 107.039063 64.710938 C 106.628906 64.621094 106.21875 64.582031 106.21875 64.308594 C 106.21875 64.089844 106.519531 64.058594 106.679688 64.058594 C 106.921875 64.058594 107.140625 64.128906 107.191406 64.390625 L 107.761719 64.390625 C 107.691406 63.832031 107.230469 63.621094 106.71875 63.621094 C 106.261719 63.621094 105.671875 63.789063 105.671875 64.339844 C 105.671875 64.839844 106.070313 64.988281 106.480469 65.070313 C 106.878906 65.167969 107.28125 65.199219 107.289063 65.488281 C 107.308594 65.769531 106.941406 65.820313 106.738281 65.820313 C 106.441406 65.820313 106.199219 65.699219 106.171875 65.378906 L 105.621094 65.378906 "/>
</g>
<g clip-path="url(#clip15)" clip-rule="nonzero">
<path style=" stroke:none;fill-rule:nonzero;fill:rgb(12.199402%,27.099609%,59.599304%);fill-opacity:1;" d="M 110.308594 64.339844 C 110.308594 63.820313 109.789063 63.621094 109.308594 63.621094 C 108.761719 63.621094 108.210938 63.808594 108.171875 64.449219 L 108.71875 64.449219 C 108.75 64.179688 108.960938 64.058594 109.269531 64.058594 C 109.5 64.058594 109.789063 64.109375 109.789063 64.390625 C 109.789063 64.71875 109.441406 64.667969 109.039063 64.75 C 108.578125 64.800781 108.078125 64.898438 108.078125 65.519531 C 108.078125 66.007813 108.488281 66.25 108.941406 66.25 C 109.230469 66.25 109.578125 66.160156 109.800781 65.949219 C 109.839844 66.179688 110 66.25 110.230469 66.25 C 110.320313 66.25 110.488281 66.21875 110.570313 66.191406 L 110.570313 65.808594 C 110.519531 65.820313 110.46875 65.820313 110.441406 65.820313 C 110.339844 65.820313 110.308594 65.769531 110.308594 65.628906 Z M 109.761719 65.339844 C 109.761719 65.691406 109.378906 65.820313 109.140625 65.820313 C 108.949219 65.820313 108.628906 65.738281 108.628906 65.5 C 108.628906 65.210938 108.839844 65.121094 109.078125 65.082031 C 109.320313 65.039063 109.589844 65.039063 109.761719 64.929688 L 109.761719 65.339844 "/>
</g>
<g clip-path="url(#clip16)" clip-rule="nonzero">
<path style=" stroke:none;fill-rule:nonzero;fill:rgb(12.199402%,27.099609%,59.599304%);fill-opacity:1;" d="M 110.871094 66.191406 L 111.421875 66.191406 L 111.421875 62.742188 L 110.871094 62.742188 Z M 110.871094 66.191406 "/>
</g>
</g>
</svg>
