<?xml version="1.0" encoding="UTF-8"?>
<svg xmlns="http://www.w3.org/2000/svg" xmlns:xlink="http://www.w3.org/1999/xlink" width="407.1pt" height="273.5pt" viewBox="0 0 407.1 273.5" version="1.1">
<defs>
<clipPath id="clip1">
  <path d="M 273 65 L 407.101563 65 L 407.101563 246 L 273 246 Z M 273 65 "/>
</clipPath>
<clipPath id="clip2">
  <path d="M 1 250 L 406 250 L 406 273.5 L 1 273.5 Z M 1 250 "/>
</clipPath>
</defs>
<g id="surface1">
<path style=" stroke:none;fill-rule:evenodd;fill:rgb(100%,92.576599%,0%);fill-opacity:1;" d="M 255.210938 11.414063 C 264.230469 2.398438 278.851563 2.394531 287.871094 11.414063 C 296.890625 20.433594 296.886719 35.058594 287.871094 44.074219 C 278.851563 53.09375 264.226563 53.09375 255.210938 44.078125 C 246.191406 35.058594 246.191406 20.4375 255.210938 11.414063 Z M 255.210938 11.414063 "/>
<path style=" stroke:none;fill-rule:evenodd;fill:rgb(0%,56.443787%,20.776367%);fill-opacity:1;" d="M 341.265625 -0.0625 L 343.253906 58.011719 L 298.648438 105.171875 C 298.648438 105.171875 285.59375 121.132813 266.597656 114.320313 C 247.597656 107.515625 244.992188 88.203125 244.992188 88.203125 L 243.257813 32.066406 C 243.257813 32.066406 247.328125 48.898438 264.363281 55.183594 C 281.402344 61.46875 295.835938 48.878906 295.835938 48.878906 C 295.835938 48.878906 302.183594 42.421875 303.660156 40.8125 C 305.140625 39.207031 341.265625 -0.0625 341.265625 -0.0625 Z M 341.265625 -0.0625 "/>
<path style=" stroke:none;fill-rule:evenodd;fill:rgb(0%,56.443787%,20.776367%);fill-opacity:1;" d="M 66.855469 113.363281 L 66.863281 113.363281 L 66.863281 113.421875 C 85.257813 113.421875 101.910156 120.773438 113.960938 132.65625 C 126.078125 144.605469 133.574219 161.136719 133.578125 179.410156 L 133.636719 179.410156 L 133.636719 179.425781 L 133.578125 179.425781 C 133.578125 197.703125 126.078125 214.234375 113.953125 226.1875 C 101.90625 238.066406 85.257813 245.414063 66.867188 245.417969 L 66.867188 245.476563 L 66.851563 245.476563 L 66.851563 245.417969 C 48.457031 245.417969 31.796875 238.066406 19.753906 226.183594 C 7.742188 214.335938 0.269531 197.988281 0.140625 179.902344 L 0.136719 179.902344 L 0.136719 179.601563 L 0.132813 179.429688 L 0.078125 179.429688 L 0.078125 179.414063 L 0.132813 179.414063 L 0.136719 179.242188 L 0.136719 65.0625 L 29.839844 65.0625 L 29.839844 124.488281 C 40.417969 117.5 53.148438 113.425781 66.84375 113.421875 L 66.84375 113.363281 Z M 29.839844 179.257813 L 29.839844 179.414063 L 29.894531 179.414063 L 29.894531 179.429688 L 29.839844 179.429688 L 29.839844 179.585938 C 29.882813 189.480469 33.988281 198.460938 40.605469 204.984375 C 47.324219 211.613281 56.609375 215.714844 66.851563 215.714844 L 66.851563 215.65625 L 66.867188 215.65625 L 66.867188 215.714844 C 77.105469 215.714844 86.386719 211.613281 93.105469 204.984375 C 99.757813 198.425781 103.871094 189.386719 103.871094 179.425781 L 103.816406 179.425781 L 103.816406 179.410156 L 103.871094 179.410156 C 103.871094 169.449219 99.757813 160.414063 93.109375 153.855469 C 86.386719 147.226563 77.105469 143.125 66.863281 143.125 L 66.863281 143.183594 L 66.84375 143.183594 L 66.84375 143.125 C 56.605469 143.125 47.328125 147.226563 40.605469 153.851563 C 33.988281 160.378906 29.882813 169.359375 29.839844 179.257813 Z M 29.839844 179.257813 "/>
<g clip-path="url(#clip1)" clip-rule="nonzero">
<path style=" stroke:none;fill-rule:evenodd;fill:rgb(0%,56.443787%,20.776367%);fill-opacity:1;" d="M 340.347656 113.363281 L 340.339844 113.363281 L 340.339844 113.421875 C 321.945313 113.421875 305.289063 120.773438 293.242188 132.65625 C 281.121094 144.605469 273.628906 161.136719 273.621094 179.410156 L 273.566406 179.410156 L 273.566406 179.425781 L 273.621094 179.425781 C 273.621094 197.703125 281.121094 214.234375 293.246094 226.1875 C 305.296875 238.066406 321.945313 245.414063 340.335938 245.417969 L 340.335938 245.476563 L 340.351563 245.476563 L 340.351563 245.417969 C 358.746094 245.417969 375.402344 238.066406 387.449219 226.183594 C 399.460938 214.335938 406.933594 197.988281 407.0625 179.902344 L 407.066406 179.902344 L 407.066406 179.601563 L 407.070313 179.429688 L 407.121094 179.429688 L 407.121094 179.414063 L 407.070313 179.414063 L 407.066406 179.242188 L 407.066406 65.0625 L 377.363281 65.0625 L 377.363281 124.488281 L 376.976563 124.234375 L 376.976563 174.175781 C 377.222656 175.835938 377.355469 177.535156 377.363281 179.257813 L 377.363281 179.414063 L 377.308594 179.414063 L 377.308594 179.429688 L 377.363281 179.429688 L 377.363281 179.585938 C 377.320313 189.480469 373.214844 198.460938 366.597656 204.984375 C 359.878906 211.613281 350.59375 215.714844 340.351563 215.714844 L 340.351563 215.65625 L 340.335938 215.65625 L 340.335938 215.714844 C 330.097656 215.714844 320.816406 211.613281 314.097656 204.984375 C 307.445313 198.425781 303.328125 189.386719 303.328125 179.425781 L 303.386719 179.425781 L 303.386719 179.410156 L 303.328125 179.410156 C 303.328125 169.449219 307.445313 160.414063 314.09375 153.855469 C 320.816406 147.226563 330.097656 143.125 340.339844 143.125 L 340.339844 143.183594 L 340.359375 143.183594 L 340.359375 143.125 C 348.179688 143.125 355.441406 145.519531 361.433594 149.605469 L 361.433594 116.78125 C 354.808594 114.601563 347.722656 113.421875 340.359375 113.421875 L 340.359375 113.363281 Z M 340.347656 113.363281 "/>
</g>
<path style=" stroke:none;fill-rule:evenodd;fill:rgb(0%,56.443787%,20.776367%);fill-opacity:1;" d="M 135.371094 226.597656 C 140.570313 226.597656 144.78125 230.75 144.78125 235.875 C 144.78125 240.996094 140.570313 245.152344 135.371094 245.152344 C 130.175781 245.152344 125.964844 240.996094 125.964844 235.875 C 125.964844 230.75 130.175781 226.597656 135.371094 226.597656 Z M 135.371094 226.597656 "/>
<path style=" stroke:none;fill-rule:evenodd;fill:rgb(0%,56.443787%,20.776367%);fill-opacity:1;" d="M 271.753906 226.597656 C 276.949219 226.597656 281.164063 230.75 281.164063 235.875 C 281.164063 240.996094 276.949219 245.152344 271.753906 245.152344 C 266.558594 245.152344 262.34375 240.996094 262.34375 235.875 C 262.34375 230.75 266.558594 226.597656 271.753906 226.597656 Z M 271.753906 226.597656 "/>
<path style=" stroke:none;fill-rule:evenodd;fill:rgb(0%,56.443787%,20.776367%);fill-opacity:1;" d="M 203.40625 113.363281 L 203.414063 113.363281 L 203.414063 113.421875 C 221.808594 113.421875 238.460938 120.773438 250.511719 132.65625 C 262.628906 144.605469 270.128906 161.136719 270.128906 179.410156 L 270.1875 179.410156 L 270.1875 179.425781 L 270.128906 179.425781 C 270.128906 197.703125 262.628906 214.234375 250.507813 226.1875 C 238.460938 238.066406 221.808594 245.414063 203.414063 245.417969 L 203.414063 245.476563 L 203.402344 245.476563 L 203.402344 245.417969 C 185.007813 245.417969 168.355469 238.066406 156.304688 226.183594 C 144.1875 214.234375 136.691406 197.703125 136.6875 179.429688 L 136.628906 179.429688 L 136.628906 179.414063 L 136.6875 179.414063 C 136.6875 161.136719 144.1875 144.605469 156.308594 132.652344 C 168.355469 120.777344 185.007813 113.425781 203.398438 113.421875 L 203.398438 113.363281 Z M 203.414063 143.125 L 203.414063 143.183594 L 203.398438 143.183594 L 203.398438 143.125 C 193.160156 143.125 183.878906 147.226563 177.160156 153.855469 C 170.507813 160.414063 166.390625 169.453125 166.390625 179.414063 L 166.449219 179.414063 L 166.449219 179.429688 L 166.390625 179.429688 C 166.390625 189.386719 170.507813 198.425781 177.15625 204.984375 C 183.878906 211.613281 193.160156 215.714844 203.402344 215.714844 L 203.402344 215.65625 L 203.414063 215.65625 L 203.414063 215.714844 C 213.65625 215.714844 222.9375 211.613281 229.65625 204.984375 C 236.308594 198.425781 240.425781 189.386719 240.425781 179.425781 L 240.367188 179.425781 L 240.367188 179.410156 L 240.425781 179.410156 C 240.425781 169.449219 236.3125 160.414063 229.660156 153.855469 C 222.9375 147.226563 213.65625 143.125 203.414063 143.125 Z M 203.414063 143.125 "/>
<g clip-path="url(#clip2)" clip-rule="nonzero">
<path style=" stroke:none;fill-rule:evenodd;fill:rgb(0%,56.443787%,20.776367%);fill-opacity:1;" d="M 1.015625 272.855469 L 1.015625 253.550781 C 1.179688 253.550781 2.148438 253.53125 3.925781 253.492188 C 5.226563 253.449219 6.257813 253.429688 7.023438 253.429688 C 8.667969 253.429688 9.980469 253.859375 10.9375 254.714844 C 11.898438 255.570313 12.378906 256.785156 12.378906 258.355469 C 12.378906 259.140625 12.121094 259.890625 11.605469 260.605469 C 11.089844 261.320313 10.414063 261.890625 9.59375 262.3125 C 10.664063 262.394531 11.609375 262.90625 12.421875 263.851563 C 13.242188 264.800781 13.648438 265.886719 13.648438 267.117188 C 13.648438 269.433594 12.796875 271.050781 11.109375 271.980469 C 9.871094 272.644531 8.023438 272.976563 5.566406 272.976563 C 5.007813 272.976563 4.207031 272.957031 3.167969 272.914063 C 2.125 272.875 1.40625 272.855469 1.015625 272.855469 Z M 4.667969 255.726563 L 4.667969 261.4375 L 6.03125 261.4375 C 6.957031 261.4375 7.703125 261.15625 8.261719 260.589844 C 8.757813 260.066406 9 259.414063 9 258.625 C 8.984375 256.652344 8.125 255.667969 6.433594 255.667969 C 6 255.667969 5.410156 255.6875 4.667969 255.726563 Z M 4.667969 263.730469 L 4.667969 270.46875 L 6.742188 270.46875 C 7.859375 270.46875 8.703125 270.148438 9.28125 269.503906 C 9.835938 268.917969 10.117188 268.113281 10.117188 267.085938 C 10.117188 266.238281 9.828125 265.484375 9.25 264.820313 C 8.585938 264.09375 7.734375 263.730469 6.679688 263.730469 Z M 23.835938 266.179688 C 23.21875 266.179688 22.464844 266.261719 21.574219 266.421875 C 20.585938 266.582031 19.921875 266.773438 19.59375 266.996094 C 19.097656 267.296875 18.851563 267.890625 18.851563 268.777344 C 18.851563 269.339844 19.035156 269.839844 19.410156 270.273438 C 19.78125 270.707031 20.214844 270.921875 20.710938 270.921875 C 21.96875 270.921875 22.996094 270.4375 23.804688 269.472656 Z M 24.148438 271.285156 C 23.277344 272.03125 22.679688 272.511719 22.351563 272.734375 C 21.664063 273.175781 20.988281 273.398438 20.304688 273.398438 C 19.066406 273.398438 18.035156 273.007813 17.210938 272.222656 C 16.296875 271.355469 15.847656 270.21875 15.847656 268.808594 C 15.847656 267.136719 16.34375 265.945313 17.332031 265.242188 C 17.972656 264.820313 19.234375 264.425781 21.113281 264.0625 C 22.082031 263.882813 22.960938 263.753906 23.746094 263.671875 L 23.746094 262.101563 C 23.746094 261.65625 23.558594 261.238281 23.1875 260.847656 C 22.816406 260.453125 22.382813 260.257813 21.886719 260.257813 C 20.007813 260.257813 18.480469 260.941406 17.304688 262.3125 L 15.972656 260.46875 C 16.527344 259.5625 17.445313 258.816406 18.726563 258.234375 C 19.84375 257.710938 20.894531 257.449219 21.886719 257.449219 C 23.351563 257.449219 24.585938 257.910156 25.585938 258.839844 C 26.585938 259.765625 27.089844 260.941406 27.089844 262.371094 L 27.089844 269.957031 C 27.089844 270.078125 27.164063 270.21875 27.320313 270.378906 C 27.476563 270.539063 27.636719 270.621094 27.796875 270.621094 C 28.460938 270.621094 28.894531 270.519531 29.101563 270.316406 L 29.441406 272.25 C 28.183594 272.914063 27.167969 273.25 26.40625 273.25 C 26.097656 273.25 25.695313 273.066406 25.199219 272.703125 C 24.640625 272.28125 24.289063 271.808594 24.148438 271.285156 Z M 40.371094 263.25 C 40.371094 262.242188 40.1875 261.464844 39.816406 260.921875 C 39.507813 260.4375 39.105469 260.199219 38.609375 260.199219 C 37.84375 260.199219 37.058594 260.625 36.253906 261.480469 C 35.449219 262.335938 35.042969 263.097656 35.042969 263.761719 L 35.042969 272.914063 L 31.734375 272.914063 L 31.734375 257.933594 L 35.042969 257.933594 L 35.042969 260.621094 C 36.308594 258.527344 37.574219 257.480469 38.855469 257.480469 C 40.15625 257.480469 41.273438 257.972656 42.203125 258.957031 C 43.191406 260.007813 43.6875 261.316406 43.6875 262.886719 L 43.6875 272.914063 L 40.371094 272.914063 Z M 46.847656 265.605469 C 46.847656 262.90625 47.652344 260.820313 49.261719 259.351563 C 50.601563 258.082031 52.234375 257.457031 54.152344 257.480469 C 55.332031 257.480469 56.902344 258.125 58.863281 259.414063 L 57.839844 261.496094 C 56.496094 260.429688 55.171875 259.894531 53.871094 259.894531 C 52.761719 259.894531 51.894531 260.539063 51.273438 261.828125 C 50.738281 262.917969 50.46875 264.207031 50.46875 265.695313 C 50.46875 267.246094 50.804688 268.5 51.476563 269.457031 C 52.148438 270.414063 53.019531 270.890625 54.09375 270.890625 C 55.3125 270.890625 56.652344 270.246094 58.117188 268.957031 L 59.511719 270.742188 C 58.707031 271.648438 57.890625 272.296875 57.066406 272.6875 C 56.238281 273.082031 55.246094 273.277344 54.09375 273.277344 C 51.386719 273.277344 49.40625 272.242188 48.148438 270.167969 C 47.277344 268.777344 46.847656 267.257813 46.847656 265.605469 Z M 61.679688 265.300781 C 61.679688 262.726563 62.515625 260.710938 64.1875 259.261719 C 65.570313 258.054688 67.179688 257.449219 69.019531 257.449219 C 70.835938 257.449219 72.414063 258.054688 73.757813 259.261719 C 75.367188 260.691406 76.167969 262.703125 76.167969 265.300781 C 76.167969 267.074219 75.707031 268.695313 74.777344 270.167969 C 73.480469 272.222656 71.542969 273.25 68.988281 273.25 C 66.199219 273.25 64.179688 272.210938 62.914063 270.136719 C 62.09375 268.765625 61.679688 267.15625 61.679688 265.300781 Z M 65.273438 265.484375 C 65.273438 266.933594 65.570313 268.164063 66.167969 269.167969 C 66.832031 270.316406 67.730469 270.890625 68.863281 270.890625 C 70.039063 270.890625 70.96875 270.308594 71.652344 269.140625 C 72.269531 268.113281 72.582031 266.84375 72.582031 265.332031 C 72.582031 263.863281 72.296875 262.613281 71.746094 261.585938 C 71.105469 260.417969 70.238281 259.835938 69.140625 259.835938 C 67.882813 259.835938 66.902344 260.429688 66.199219 261.617188 C 65.582031 262.664063 65.273438 263.953125 65.273438 265.484375 Z M 86.824219 263.1875 C 86.824219 260.367188 87.683594 258.03125 89.394531 256.179688 C 91.109375 254.328125 93.285156 253.398438 95.929688 253.398438 C 98.546875 253.398438 100.6875 254.328125 102.339844 256.179688 C 103.992188 258.03125 104.816406 260.367188 104.816406 263.1875 C 104.816406 266.390625 103.929688 268.917969 102.152344 270.769531 C 100.480469 272.523438 98.335938 273.398438 95.710938 273.398438 C 93.109375 273.398438 91.003906 272.523438 89.394531 270.769531 C 87.683594 268.917969 86.824219 266.390625 86.824219 263.1875 Z M 90.695313 263.460938 C 90.695313 265.414063 91.167969 267.105469 92.121094 268.535156 C 93.070313 269.964844 94.269531 270.679688 95.710938 270.679688 C 97.179688 270.679688 98.429688 269.945313 99.460938 268.476563 C 100.449219 267.066406 100.945313 265.402344 100.945313 263.488281 C 100.945313 261.476563 100.492188 259.753906 99.582031 258.324219 C 98.632813 256.8125 97.394531 256.058594 95.867188 256.058594 C 94.339844 256.058594 93.082031 256.8125 92.089844 258.324219 C 91.160156 259.753906 90.695313 261.464844 90.695313 263.460938 Z M 106.984375 265.605469 C 106.984375 262.90625 107.789063 260.820313 109.402344 259.351563 C 110.742188 258.082031 112.371094 257.457031 114.289063 257.480469 C 115.46875 257.480469 117.039063 258.125 118.996094 259.414063 L 117.976563 261.496094 C 116.636719 260.429688 115.316406 259.894531 114.015625 259.894531 C 112.898438 259.894531 112.03125 260.539063 111.414063 261.828125 C 110.871094 262.917969 110.609375 264.207031 110.609375 265.695313 C 110.609375 267.246094 110.945313 268.5 111.613281 269.457031 C 112.285156 270.414063 113.15625 270.890625 114.230469 270.890625 C 115.449219 270.890625 116.789063 270.246094 118.257813 268.957031 L 119.648438 270.742188 C 118.84375 271.648438 118.03125 272.296875 117.203125 272.6875 C 116.378906 273.082031 115.386719 273.277344 114.230469 273.277344 C 111.527344 273.277344 109.539063 272.242188 108.285156 270.167969 C 107.414063 268.777344 106.984375 267.257813 106.984375 265.605469 Z M 121.820313 265.605469 C 121.820313 262.90625 122.621094 260.820313 124.234375 259.351563 C 125.574219 258.082031 127.203125 257.457031 129.128906 257.480469 C 130.304688 257.480469 131.871094 258.125 133.835938 259.414063 L 132.8125 261.496094 C 131.46875 260.429688 130.148438 259.894531 128.847656 259.894531 C 127.734375 259.894531 126.867188 260.539063 126.246094 261.828125 C 125.710938 262.917969 125.441406 264.207031 125.441406 265.695313 C 125.441406 267.246094 125.777344 268.5 126.449219 269.457031 C 127.117188 270.414063 127.992188 270.890625 129.066406 270.890625 C 130.28125 270.890625 131.621094 270.246094 133.089844 268.957031 L 134.484375 270.742188 C 133.679688 271.648438 132.863281 272.296875 132.039063 272.6875 C 131.210938 273.082031 130.222656 273.277344 129.066406 273.277344 C 126.359375 273.277344 124.378906 272.242188 123.121094 270.167969 C 122.253906 268.777344 121.820313 267.257813 121.820313 265.605469 Z M 136.777344 253.066406 C 136.777344 252.421875 137.003906 251.890625 137.453125 251.464844 C 137.910156 251.042969 138.449219 250.832031 139.066406 250.832031 C 139.664063 250.832031 140.191406 251.042969 140.648438 251.464844 C 141.101563 251.890625 141.328125 252.421875 141.328125 253.066406 C 141.328125 253.710938 141.105469 254.25 140.660156 254.683594 C 140.21875 255.117188 139.6875 255.332031 139.066406 255.332031 C 138.449219 255.332031 137.910156 255.117188 137.453125 254.683594 C 137.003906 254.25 136.777344 253.710938 136.777344 253.066406 Z M 137.394531 257.960938 L 140.710938 257.960938 L 140.710938 272.914063 L 137.394531 272.914063 Z M 153.683594 272.945313 L 153.4375 271.4375 C 152.816406 271.816406 152.1875 272.199219 151.546875 272.582031 C 150.679688 273.066406 150.011719 273.308594 149.535156 273.308594 C 147.65625 273.308594 146.191406 272.441406 145.136719 270.710938 C 144.246094 269.261719 143.804688 267.5 143.804688 265.421875 C 143.804688 263.347656 144.261719 261.507813 145.164063 259.894531 C 146.160156 258.144531 147.386719 257.265625 148.851563 257.265625 C 149.90625 257.265625 150.710938 257.386719 151.269531 257.628906 C 151.578125 257.769531 152.21875 258.214844 153.191406 258.957031 L 153.191406 251.859375 L 156.535156 251.859375 L 156.535156 272.945313 Z M 149.996094 259.957031 C 148.308594 259.957031 147.460938 261.667969 147.460938 265.089844 C 147.460938 266.683594 147.6875 267.972656 148.140625 268.957031 C 148.636719 270.085938 149.347656 270.648438 150.277344 270.648438 C 150.898438 270.648438 151.867188 270.125 153.191406 269.078125 L 153.191406 262.585938 C 152.507813 261.636719 152.0625 261.0625 151.855469 260.863281 C 151.277344 260.257813 150.660156 259.957031 149.996094 259.957031 Z M 166.996094 270.863281 C 168.34375 270.882813 169.683594 270.246094 171.027344 268.957031 L 172.414063 270.800781 C 171.347656 271.808594 170.40625 272.484375 169.601563 272.824219 C 168.878906 273.128906 167.941406 273.277344 166.785156 273.277344 C 164.078125 273.277344 162.109375 272.191406 160.867188 270.015625 C 160.085938 268.605469 159.691406 267.085938 159.691406 265.453125 C 159.691406 263.179688 160.3125 261.304688 161.550781 259.835938 C 162.871094 258.285156 164.65625 257.507813 166.90625 257.507813 C 168.453125 257.507813 169.757813 258.011719 170.808594 259.019531 C 171.964844 260.128906 172.539063 261.605469 172.539063 263.460938 L 172.539063 265.726563 L 163.378906 265.726563 C 163.414063 269.128906 164.621094 270.839844 166.996094 270.863281 Z M 169.164063 263.15625 C 169.269531 260.960938 168.445313 259.867188 166.691406 259.867188 C 165.988281 259.867188 165.371094 260.128906 164.828125 260.652344 C 164.191406 261.253906 163.78125 262.089844 163.59375 263.15625 Z M 184.28125 263.25 C 184.28125 262.242188 184.09375 261.464844 183.722656 260.921875 C 183.414063 260.4375 183.011719 260.199219 182.515625 260.199219 C 181.746094 260.199219 180.96875 260.625 180.160156 261.480469 C 179.355469 262.335938 178.953125 263.097656 178.953125 263.761719 L 178.953125 272.914063 L 175.640625 272.914063 L 175.640625 257.933594 L 178.953125 257.933594 L 178.953125 260.621094 C 180.214844 258.527344 181.484375 257.480469 182.761719 257.480469 C 184.0625 257.480469 185.179688 257.972656 186.109375 258.957031 C 187.097656 260.007813 187.59375 261.316406 187.59375 262.886719 L 187.59375 272.914063 L 184.28125 272.914063 Z M 192.363281 268.261719 L 192.363281 260.53125 L 190.195313 260.53125 L 190.195313 258.054688 L 192.363281 258.054688 L 192.363281 254.878906 L 195.863281 254.878906 L 195.863281 258.054688 L 198.960938 258.054688 L 198.960938 260.558594 L 195.863281 260.53125 L 195.863281 268.59375 C 195.863281 269.882813 196.246094 270.527344 197.007813 270.527344 C 197.628906 270.527344 198.039063 270.488281 198.246094 270.40625 C 198.269531 270.40625 198.617188 270.21875 199.300781 269.835938 L 200.039063 271.917969 C 198.992188 272.484375 198.277344 272.824219 197.90625 272.945313 C 197.390625 273.085938 196.574219 273.15625 195.460938 273.15625 C 193.394531 273.15625 192.363281 271.527344 192.363281 268.261719 Z M 209.671875 266.179688 C 209.054688 266.179688 208.300781 266.261719 207.414063 266.421875 C 206.421875 266.582031 205.761719 266.773438 205.429688 266.996094 C 204.9375 267.296875 204.6875 267.890625 204.6875 268.777344 C 204.6875 269.339844 204.871094 269.839844 205.246094 270.273438 C 205.617188 270.707031 206.050781 270.921875 206.546875 270.921875 C 207.804688 270.921875 208.835938 270.4375 209.640625 269.472656 Z M 209.984375 271.285156 C 209.117188 272.03125 208.515625 272.511719 208.1875 272.734375 C 207.507813 273.175781 206.824219 273.398438 206.144531 273.398438 C 204.90625 273.398438 203.871094 273.007813 203.046875 272.222656 C 202.136719 271.355469 201.683594 270.21875 201.683594 268.808594 C 201.683594 267.136719 202.179688 265.945313 203.171875 265.242188 C 203.8125 264.820313 205.070313 264.425781 206.949219 264.0625 C 207.914063 263.882813 208.796875 263.753906 209.578125 263.671875 L 209.578125 262.101563 C 209.578125 261.65625 209.394531 261.238281 209.023438 260.847656 C 208.652344 260.453125 208.21875 260.257813 207.722656 260.257813 C 205.84375 260.257813 204.316406 260.941406 203.140625 262.3125 L 201.808594 260.46875 C 202.367188 259.5625 203.285156 258.816406 204.566406 258.234375 C 205.679688 257.710938 206.730469 257.449219 207.722656 257.449219 C 209.1875 257.449219 210.421875 257.910156 211.421875 258.839844 C 212.425781 259.765625 212.925781 260.941406 212.925781 262.371094 L 212.925781 269.957031 C 212.925781 270.078125 213.003906 270.21875 213.15625 270.378906 C 213.3125 270.539063 213.472656 270.621094 213.636719 270.621094 C 214.296875 270.621094 214.730469 270.519531 214.9375 270.316406 L 215.277344 272.25 C 214.019531 272.914063 213.007813 273.25 212.246094 273.25 C 211.933594 273.25 211.53125 273.066406 211.035156 272.703125 C 210.480469 272.28125 210.128906 271.808594 209.984375 271.285156 Z M 217.601563 251.828125 L 220.882813 251.828125 L 220.882813 272.914063 L 217.601563 272.914063 Z M 242.347656 272.945313 L 242.097656 271.4375 C 241.480469 271.816406 240.847656 272.199219 240.203125 272.582031 C 239.339844 273.066406 238.671875 273.308594 238.195313 273.308594 C 236.316406 273.308594 234.851563 272.441406 233.796875 270.710938 C 232.910156 269.261719 232.464844 267.5 232.464844 265.421875 C 232.464844 263.347656 232.921875 261.507813 233.828125 259.894531 C 234.820313 258.144531 236.046875 257.265625 237.515625 257.265625 C 238.566406 257.265625 239.371094 257.386719 239.929688 257.628906 C 240.238281 257.769531 240.878906 258.214844 241.851563 258.957031 L 241.851563 251.859375 L 245.195313 251.859375 L 245.195313 272.945313 Z M 238.660156 259.957031 C 236.96875 259.957031 236.121094 261.667969 236.121094 265.089844 C 236.121094 266.683594 236.347656 267.972656 236.800781 268.957031 C 237.296875 270.085938 238.011719 270.648438 238.9375 270.648438 C 239.558594 270.648438 240.527344 270.125 241.851563 269.078125 L 241.851563 262.585938 C 241.164063 261.636719 240.722656 261.0625 240.519531 260.863281 C 239.941406 260.257813 239.320313 259.957031 238.660156 259.957031 Z M 255.660156 270.863281 C 257.003906 270.882813 258.34375 270.246094 259.6875 268.957031 L 261.078125 270.800781 C 260.007813 271.808594 259.066406 272.484375 258.261719 272.824219 C 257.539063 273.128906 256.601563 273.277344 255.445313 273.277344 C 252.738281 273.277344 250.769531 272.191406 249.527344 270.015625 C 248.746094 268.605469 248.351563 267.085938 248.351563 265.453125 C 248.351563 263.179688 248.972656 261.304688 250.210938 259.835938 C 251.53125 258.285156 253.316406 257.507813 255.566406 257.507813 C 257.117188 257.507813 258.414063 258.011719 259.46875 259.019531 C 260.621094 260.128906 261.203125 261.605469 261.203125 263.460938 L 261.203125 265.726563 L 252.039063 265.726563 C 252.078125 269.128906 253.289063 270.839844 255.660156 270.863281 Z M 257.828125 263.15625 C 257.933594 260.960938 257.105469 259.867188 255.351563 259.867188 C 254.648438 259.867188 254.03125 260.128906 253.492188 260.652344 C 252.855469 261.253906 252.441406 262.089844 252.253906 263.15625 Z M 272.753906 272.855469 L 272.753906 253.492188 C 274.40625 253.410156 276.089844 253.371094 277.804688 253.371094 C 284.101563 253.371094 287.269531 256.632813 287.3125 263.15625 C 287.328125 266.238281 286.535156 268.625 284.925781 270.316406 C 283.273438 272.089844 280.859375 272.976563 277.679688 272.976563 C 277.183594 272.976563 276.453125 272.957031 275.480469 272.914063 C 274.511719 272.875 273.601563 272.855469 272.753906 272.855469 Z M 278.050781 255.726563 C 277.90625 255.726563 277.664063 255.726563 277.339844 255.726563 C 277.027344 255.746094 276.761719 255.757813 276.535156 255.757813 L 276.535156 270.289063 L 278.238281 270.289063 C 279.828125 270.289063 281.117188 269.550781 282.109375 268.082031 C 282.996094 266.773438 283.441406 265.230469 283.441406 263.460938 C 283.441406 258.304688 281.644531 255.726563 278.050781 255.726563 Z M 296.816406 270.863281 C 298.160156 270.882813 299.496094 270.246094 300.84375 268.957031 L 302.238281 270.800781 C 301.164063 271.808594 300.222656 272.484375 299.414063 272.824219 C 298.695313 273.128906 297.757813 273.277344 296.601563 273.277344 C 293.894531 273.277344 291.925781 272.191406 290.683594 270.015625 C 289.902344 268.605469 289.507813 267.085938 289.507813 265.453125 C 289.507813 263.179688 290.128906 261.304688 291.367188 259.835938 C 292.6875 258.285156 294.472656 257.507813 296.722656 257.507813 C 298.273438 257.507813 299.574219 258.011719 300.621094 259.019531 C 301.78125 260.128906 302.359375 261.605469 302.359375 263.460938 L 302.359375 265.726563 L 293.195313 265.726563 C 293.234375 269.128906 294.445313 270.839844 296.816406 270.863281 Z M 298.984375 263.15625 C 299.089844 260.960938 298.261719 259.867188 296.507813 259.867188 C 295.804688 259.867188 295.1875 260.128906 294.648438 260.652344 C 294.011719 261.253906 293.597656 262.089844 293.410156 263.15625 Z M 304.929688 270.921875 L 306.664063 268.65625 C 307.761719 270.066406 308.96875 270.769531 310.289063 270.769531 C 310.949219 270.769531 311.480469 270.589844 311.882813 270.226563 C 312.285156 269.863281 312.488281 269.402344 312.488281 268.835938 C 312.488281 267.832031 311.3125 266.996094 308.953125 266.332031 C 307.78125 266.007813 306.925781 265.59375 306.386719 265.089844 C 305.683594 264.425781 305.328125 263.519531 305.328125 262.371094 C 305.328125 260.742188 305.878906 259.472656 306.976563 258.566406 C 307.90625 257.78125 309.050781 257.386719 310.414063 257.386719 L 310.476563 257.386719 C 311.859375 257.386719 313.425781 257.933594 315.183594 259.019531 L 313.972656 261.253906 C 312.777344 260.429688 311.683594 260.015625 310.691406 260.015625 C 310.03125 260.015625 309.519531 260.1875 309.160156 260.53125 C 308.796875 260.871094 308.617188 261.265625 308.617188 261.707031 C 308.617188 262.25 308.84375 262.613281 309.296875 262.796875 C 310.019531 263.078125 310.722656 263.320313 311.402344 263.519531 C 314.371094 264.386719 315.863281 265.855469 315.863281 267.929688 C 315.863281 269.683594 315.273438 271.050781 314.097656 272.039063 C 313.039063 272.90625 311.734375 273.339844 310.164063 273.339844 C 307.933594 273.339844 306.191406 272.535156 304.929688 270.921875 Z M 318.246094 265.605469 C 318.246094 262.90625 319.054688 260.820313 320.664063 259.351563 C 322.003906 258.082031 323.636719 257.457031 325.554688 257.480469 C 326.734375 257.480469 328.300781 258.125 330.261719 259.414063 L 329.242188 261.496094 C 327.898438 260.429688 326.578125 259.894531 325.277344 259.894531 C 324.164063 259.894531 323.296875 260.539063 322.675781 261.828125 C 322.140625 262.917969 321.871094 264.207031 321.871094 265.695313 C 321.871094 267.246094 322.203125 268.5 322.878906 269.457031 C 323.546875 270.414063 324.421875 270.890625 325.492188 270.890625 C 326.710938 270.890625 328.054688 270.246094 329.519531 268.957031 L 330.914063 270.742188 C 330.109375 271.648438 329.289063 272.296875 328.464844 272.6875 C 327.640625 273.082031 326.648438 273.277344 325.492188 273.277344 C 322.789063 273.277344 320.808594 272.242188 319.546875 270.167969 C 318.679688 268.777344 318.246094 267.257813 318.246094 265.605469 Z M 342.679688 272.914063 C 342.621094 272.371094 342.515625 271.65625 342.371094 270.769531 C 340.945313 272.5625 339.664063 273.460938 338.53125 273.460938 C 337.253906 273.460938 336.15625 272.964844 335.246094 271.980469 C 334.300781 270.910156 333.824219 269.550781 333.824219 267.902344 L 333.824219 257.960938 L 337.136719 257.960938 L 337.136719 267.808594 C 337.136719 269.703125 337.675781 270.648438 338.746094 270.648438 C 339.492188 270.648438 340.296875 270.1875 341.164063 269.261719 C 341.96875 268.414063 342.371094 267.730469 342.371094 267.207031 L 342.371094 257.960938 L 345.6875 257.960938 L 345.6875 272.914063 Z M 356.214844 270.863281 C 357.554688 270.882813 358.898438 270.246094 360.238281 268.957031 L 361.632813 270.800781 C 360.558594 271.808594 359.621094 272.484375 358.816406 272.824219 C 358.09375 273.128906 357.152344 273.277344 355.996094 273.277344 C 353.289063 273.277344 351.320313 272.191406 350.078125 270.015625 C 349.296875 268.605469 348.90625 267.085938 348.90625 265.453125 C 348.90625 263.179688 349.523438 261.304688 350.765625 259.835938 C 352.085938 258.285156 353.871094 257.507813 356.121094 257.507813 C 357.664063 257.507813 358.96875 258.011719 360.023438 259.019531 C 361.179688 260.128906 361.757813 261.605469 361.757813 263.460938 L 361.757813 265.726563 L 352.589844 265.726563 C 352.632813 269.128906 353.839844 270.839844 356.214844 270.863281 Z M 358.382813 263.15625 C 358.484375 260.960938 357.660156 259.867188 355.90625 259.867188 C 355.203125 259.867188 354.578125 260.128906 354.046875 260.652344 C 353.40625 261.253906 352.992188 262.089844 352.808594 263.15625 Z M 373.496094 263.25 C 373.496094 262.242188 373.308594 261.464844 372.9375 260.921875 C 372.628906 260.4375 372.226563 260.199219 371.730469 260.199219 C 370.964844 260.199219 370.179688 260.625 369.371094 261.480469 C 368.570313 262.335938 368.164063 263.097656 368.164063 263.761719 L 368.164063 272.914063 L 364.855469 272.914063 L 364.855469 257.933594 L 368.164063 257.933594 L 368.164063 260.621094 C 369.425781 258.527344 370.695313 257.480469 371.976563 257.480469 C 373.277344 257.480469 374.390625 257.972656 375.320313 258.957031 C 376.3125 260.007813 376.808594 261.316406 376.808594 262.886719 L 376.808594 272.914063 L 373.496094 272.914063 Z M 381.578125 268.261719 L 381.578125 260.53125 L 379.410156 260.53125 L 379.410156 258.054688 L 381.578125 258.054688 L 381.578125 254.878906 L 385.074219 254.878906 L 385.074219 258.054688 L 388.171875 258.054688 L 388.171875 260.558594 L 385.074219 260.53125 L 385.074219 268.59375 C 385.074219 269.882813 385.453125 270.527344 386.222656 270.527344 C 386.84375 270.527344 387.253906 270.488281 387.460938 270.40625 C 387.480469 270.40625 387.828125 270.21875 388.511719 269.835938 L 389.257813 271.917969 C 388.203125 272.484375 387.492188 272.824219 387.121094 272.945313 C 386.605469 273.085938 385.789063 273.15625 384.671875 273.15625 C 382.609375 273.15625 381.578125 271.527344 381.578125 268.261719 Z M 390.835938 265.300781 C 390.835938 262.726563 391.671875 260.710938 393.34375 259.261719 C 394.726563 258.054688 396.335938 257.449219 398.175781 257.449219 C 399.992188 257.449219 401.570313 258.054688 402.914063 259.261719 C 404.523438 260.691406 405.328125 262.703125 405.328125 265.300781 C 405.328125 267.074219 404.863281 268.695313 403.9375 270.167969 C 402.636719 272.222656 400.703125 273.25 398.144531 273.25 C 395.355469 273.25 393.328125 272.210938 392.074219 270.136719 C 391.246094 268.765625 390.835938 267.15625 390.835938 265.300781 Z M 394.425781 265.484375 C 394.425781 266.933594 394.726563 268.164063 395.328125 269.167969 C 395.988281 270.316406 396.886719 270.890625 398.019531 270.890625 C 399.195313 270.890625 400.121094 270.308594 400.808594 269.140625 C 401.425781 268.113281 401.738281 266.84375 401.738281 265.332031 C 401.738281 263.863281 401.453125 262.613281 400.898438 261.585938 C 400.261719 260.417969 399.394531 259.835938 398.300781 259.835938 C 397.039063 259.835938 396.058594 260.429688 395.355469 261.617188 C 394.738281 262.664063 394.425781 263.953125 394.425781 265.484375 Z M 394.425781 265.484375 "/>
</g>
</g>
</svg>
