<?xml version="1.0" encoding="UTF-8"?>
<svg xmlns="http://www.w3.org/2000/svg" xmlns:xlink="http://www.w3.org/1999/xlink" width="744pt" height="176pt" viewBox="0 0 744 176" version="1.1">
<g id="surface1">
<path style=" stroke:none;fill-rule:evenodd;fill:rgb(100%,100%,100%);fill-opacity:1;" d="M 0.0625 0.753906 L 743.9375 0.753906 L 743.9375 175.246094 L 0.0625 175.246094 L 0.0625 0.753906 "/>
<path style=" stroke:none;fill-rule:evenodd;fill:rgb(0%,32.499695%,62.69989%);fill-opacity:1;" d="M 260.207031 114.5625 L 270.449219 114.5625 L 270.449219 98.136719 C 270.449219 93.226563 273.222656 79.785156 283.035156 79.785156 C 287.945313 79.785156 288.796875 84.691406 288.796875 89.601563 L 288.796875 114.5625 L 298.609375 114.5625 L 298.609375 85.546875 C 298.609375 79.785156 294.984375 73.597656 287.089844 73.597656 C 276.636719 73.597656 272.367188 81.066406 270.449219 84.265625 L 270.449219 74.453125 L 260.207031 74.453125 L 260.207031 114.5625 "/>
<path style=" stroke:none;fill-rule:evenodd;fill:rgb(0%,32.499695%,62.69989%);fill-opacity:1;" d="M 171.023438 114.5625 L 185.316406 114.5625 C 193.640625 114.5625 210.28125 114.5625 210.28125 100.269531 C 210.28125 90.878906 203.027344 87.679688 196.414063 86.828125 L 196.414063 86.398438 C 201.320313 85.546875 207.507813 81.917969 207.507813 74.453125 C 207.507813 63.144531 195.558594 61.863281 185.316406 61.863281 L 171.023438 61.863281 Z M 181.265625 66.769531 L 185.316406 66.769531 C 192.785156 66.769531 197.265625 68.050781 197.265625 75.304688 C 197.265625 82.34375 192.359375 84.265625 185.316406 84.265625 L 181.265625 84.265625 Z M 181.265625 89.601563 L 185.316406 89.601563 C 193.214844 89.601563 200.46875 91.308594 200.46875 99.414063 C 200.46875 109.226563 191.933594 109.65625 185.316406 109.65625 L 181.265625 109.65625 L 181.265625 89.601563 "/>
<path style=" stroke:none;fill-rule:evenodd;fill:rgb(0%,32.499695%,62.69989%);fill-opacity:1;" d="M 367.738281 115.414063 C 381.605469 115.414063 388.648438 108.375 388.648438 94.507813 C 388.648438 81.066406 381.605469 73.597656 367.738281 73.597656 C 353.871094 73.597656 347.257813 81.066406 347.257813 94.507813 C 347.257813 108.375 353.871094 115.414063 367.738281 115.414063 Z M 357.925781 94.507813 C 357.925781 87.253906 359.203125 77.011719 367.738281 77.011719 C 376.699219 77.011719 377.980469 87.253906 377.980469 94.507813 C 377.980469 101.976563 376.699219 111.789063 367.738281 111.789063 C 359.203125 111.789063 357.925781 101.976563 357.925781 94.507813 "/>
<path style=" stroke:none;fill-rule:evenodd;fill:rgb(0%,32.499695%,62.69989%);fill-opacity:1;" d="M 241.859375 100.695313 C 241.859375 107.523438 236.949219 110.082031 233.535156 110.082031 C 230.335938 110.082031 227.992188 107.949219 227.992188 104.324219 C 227.992188 96.640625 237.804688 96.214844 241.859375 95.789063 Z M 241.859375 114.5625 L 251.671875 114.5625 L 251.671875 88.746094 C 251.671875 81.066406 250.394531 73.597656 235.246094 73.597656 C 220.949219 73.597656 218.8125 79.785156 217.75 85.972656 L 228.628906 85.972656 C 229.058594 81.066406 229.484375 77.011719 235.246094 77.011719 C 241.859375 77.011719 241.859375 84.265625 241.859375 88.746094 L 241.859375 92.160156 C 235.671875 92.800781 216.042969 93.226563 216.042969 105.601563 C 216.042969 110.9375 221.378906 115.414063 228.628906 115.414063 C 236.097656 115.414063 240.152344 111.363281 241.859375 109.226563 L 241.859375 114.5625 "/>
<path style=" stroke:none;fill-rule:evenodd;fill:rgb(0%,32.499695%,62.69989%);fill-opacity:1;" d="M 341.496094 109.65625 C 338.722656 110.507813 336.589844 110.9375 333.386719 110.9375 C 321.441406 110.9375 316.535156 99.839844 316.535156 90.027344 C 316.535156 82.773438 319.09375 77.011719 324.855469 77.011719 C 331.683594 77.011719 331.683594 82.773438 331.683594 87.253906 L 342.351563 87.253906 C 342.351563 79.359375 338.296875 73.597656 325.28125 73.597656 C 311.625 73.597656 305.226563 81.066406 305.226563 93.226563 C 305.226563 107.949219 314.1875 114.988281 329.335938 115.414063 C 334.242188 115.84375 338.722656 114.136719 342.777344 112.429688 L 341.496094 109.65625 "/>
<path style=" stroke:none;fill-rule:evenodd;fill:rgb(0%,32.499695%,62.69989%);fill-opacity:1;" d="M 13.351563 35.195313 L 144.566406 35.195313 L 144.566406 140.804688 L 13.351563 140.804688 Z M 36.183594 106.457031 L 20.605469 106.457031 L 20.605469 69.546875 L 36.609375 69.546875 C 44.289063 69.546875 46.851563 75.730469 42.796875 81.492188 L 41.089844 84.265625 C 54.105469 90.453125 49.621094 106.457031 36.183594 106.457031 Z M 34.476563 85.972656 L 37.460938 81.066406 C 37.890625 80.210938 38.53125 79.359375 38.53125 78.503906 C 38.53125 76.160156 36.183594 74.453125 34.046875 74.453125 L 29.566406 74.453125 L 29.566406 101.546875 L 31.703125 101.546875 C 36.183594 101.546875 39.808594 99.414063 39.808594 93.65625 C 39.808594 89.171875 37.460938 86.398438 34.476563 85.972656 Z M 67.332031 106.457031 L 51.757813 106.457031 L 51.757813 69.546875 L 67.972656 69.546875 C 75.441406 69.546875 78.214844 75.730469 74.160156 81.492188 L 72.238281 84.265625 C 85.253906 90.453125 80.773438 106.457031 67.332031 106.457031 Z M 65.625 85.972656 L 68.824219 81.066406 C 69.253906 80.210938 69.679688 79.359375 69.679688 78.503906 C 69.679688 76.160156 67.332031 74.453125 65.199219 74.453125 L 60.71875 74.453125 L 60.71875 101.546875 L 63.066406 101.546875 C 67.332031 101.546875 70.957031 99.414063 70.957031 93.65625 C 70.957031 89.171875 68.824219 86.398438 65.625 85.972656 Z M 104.03125 69.546875 L 109.789063 69.546875 L 98.695313 106.457031 L 89.734375 106.457031 L 77.789063 69.546875 L 84.402344 69.546875 C 86.535156 69.546875 87.601563 69.972656 88.882813 74.453125 L 95.496094 97.707031 Z M 124.085938 69.546875 C 126.859375 69.546875 127.285156 70.398438 128.566406 72.957031 L 139.660156 106.457031 L 129.421875 106.457031 L 127.285156 98.5625 L 113.84375 98.5625 L 111.070313 106.457031 L 105.3125 106.457031 L 117.046875 69.546875 Z M 125.363281 93.226563 L 115.125 93.226563 L 120.457031 76.160156 Z M 125.363281 93.226563 "/>
<path style=" stroke:none;fill-rule:evenodd;fill:rgb(0%,32.499695%,62.69989%);fill-opacity:1;" d="M 125.363281 93.226563 L 115.125 93.226563 L 120.457031 76.160156 Z M 125.363281 93.226563 "/>
<path style=" stroke:none;fill-rule:evenodd;fill:rgb(0%,32.499695%,62.69989%);fill-opacity:1;" d="M 443.964844 114.5625 L 453.777344 114.5625 L 453.777344 96.214844 C 453.777344 85.546875 459.539063 82.773438 468.925781 82.34375 L 468.925781 74.023438 C 460.605469 74.453125 456.976563 79.359375 453.777344 84.691406 L 453.777344 74.878906 L 443.964844 74.878906 L 443.964844 114.5625 "/>
<path style=" stroke:none;fill-rule:evenodd;fill:rgb(0%,32.499695%,62.69989%);fill-opacity:1;" d="M 490.296875 114.5625 C 504.164063 114.5625 511.203125 107.523438 511.203125 93.65625 C 511.203125 80.214844 504.164063 72.746094 490.296875 72.746094 C 476.425781 72.746094 469.8125 80.214844 469.8125 93.65625 C 469.8125 107.523438 476.425781 114.5625 490.296875 114.5625 Z M 480.480469 93.65625 C 480.480469 86.398438 481.757813 76.160156 490.296875 76.160156 C 499.253906 76.160156 500.535156 86.398438 500.535156 93.65625 C 500.535156 101.121094 499.253906 110.9375 490.296875 110.9375 C 481.757813 110.9375 480.480469 101.121094 480.480469 93.65625 "/>
<path style=" stroke:none;fill-rule:evenodd;fill:rgb(0%,32.499695%,62.69989%);fill-opacity:1;" d="M 654.863281 108.734375 C 652.089844 109.589844 649.957031 110.015625 646.753906 110.015625 C 634.808594 110.015625 629.898438 98.921875 629.898438 89.105469 C 629.898438 81.851563 632.460938 76.09375 638.222656 76.09375 C 645.050781 76.09375 645.050781 81.851563 645.050781 86.335938 L 655.714844 86.335938 C 655.714844 78.441406 651.664063 72.679688 638.648438 72.679688 C 624.992188 72.679688 618.59375 80.148438 618.59375 92.308594 C 618.59375 107.03125 627.554688 114.070313 642.703125 114.496094 C 647.609375 114.925781 652.089844 113.21875 656.144531 111.511719 L 654.863281 108.734375 "/>
<path style=" stroke:none;fill-rule:evenodd;fill:rgb(0%,32.499695%,62.69989%);fill-opacity:1;" d="M 703.066406 99.839844 C 703.066406 106.667969 698.160156 109.230469 694.746094 109.230469 C 691.546875 109.230469 689.195313 107.09375 689.195313 103.46875 C 689.195313 95.789063 699.011719 95.359375 703.066406 94.933594 Z M 703.066406 113.710938 L 712.878906 113.710938 L 712.878906 87.894531 C 712.878906 80.214844 711.601563 72.746094 696.453125 72.746094 C 682.15625 72.746094 680.023438 78.933594 678.957031 85.121094 L 689.839844 85.121094 C 690.265625 80.214844 690.691406 76.160156 696.453125 76.160156 C 703.066406 76.160156 703.066406 83.414063 703.066406 87.894531 L 703.066406 91.308594 C 696.878906 91.949219 677.25 92.375 677.25 104.75 C 677.25 110.082031 682.585938 114.5625 689.839844 114.5625 C 697.304688 114.5625 701.359375 110.507813 703.066406 108.375 L 703.066406 113.710938 "/>
<path style=" stroke:none;fill-rule:evenodd;fill:rgb(0%,32.499695%,62.69989%);fill-opacity:1;" d="M 576.25 114.5625 L 586.492188 114.5625 L 586.492188 98.136719 C 586.492188 93.226563 589.265625 79.785156 599.078125 79.785156 C 603.988281 79.785156 604.839844 84.691406 604.839844 89.601563 L 604.839844 114.5625 L 614.652344 114.5625 L 614.652344 85.546875 C 614.652344 79.785156 611.027344 73.597656 603.132813 73.597656 C 592.679688 73.597656 588.410156 81.066406 586.492188 84.265625 L 586.492188 74.453125 L 576.25 74.453125 L 576.25 114.5625 "/>
<path style=" stroke:none;fill-rule:evenodd;fill:rgb(0%,32.499695%,62.69989%);fill-opacity:1;" d="M 556.457031 114.5625 L 566.011719 114.5625 L 566.011719 76.652344 L 556.457031 76.652344 L 556.457031 114.5625 "/>
<path style=" stroke:none;fill-rule:evenodd;fill:rgb(0%,32.499695%,62.69989%);fill-opacity:1;" d="M 556.457031 72.472656 L 566.011719 72.472656 L 566.011719 63.816406 L 556.457031 63.816406 L 556.457031 72.472656 "/>
<path style=" stroke:none;fill-rule:evenodd;fill:rgb(0%,32.499695%,62.69989%);fill-opacity:1;" d="M 661.917969 114.5625 L 671.472656 114.5625 L 671.472656 76.652344 L 661.917969 76.652344 L 661.917969 114.5625 "/>
<path style=" stroke:none;fill-rule:evenodd;fill:rgb(0%,32.499695%,62.69989%);fill-opacity:1;" d="M 661.917969 72.472656 L 671.472656 72.472656 L 671.472656 63.816406 L 661.917969 63.816406 L 661.917969 72.472656 "/>
<path style=" stroke:none;fill-rule:evenodd;fill:rgb(0%,32.499695%,62.69989%);fill-opacity:1;" d="M 721.09375 114.5625 L 730.648438 114.5625 L 730.648438 61.742188 L 721.09375 67.492188 L 721.09375 114.5625 "/>
<path style=" stroke:none;fill-rule:evenodd;fill:rgb(0%,32.499695%,62.69989%);fill-opacity:1;" d="M 509.859375 76.636719 L 518.757813 76.636719 L 532.3125 104.867188 L 546.402344 76.636719 L 555.167969 76.636719 L 536.644531 114.5625 L 527.585938 114.5625 L 509.859375 76.636719 "/>
<path style=" stroke:none;fill-rule:evenodd;fill:rgb(0%,32.499695%,62.69989%);fill-opacity:1;" d="M 404.957031 114.5625 L 415.203125 114.5625 L 415.203125 111.015625 L 415.199219 111.015625 L 415.199219 87.726563 C 422.648438 88.257813 428.660156 86.871094 430.351563 86.429688 C 430.347656 86.417969 430.347656 86.410156 430.347656 86.398438 C 430.464844 86.378906 430.578125 86.355469 430.695313 86.335938 L 430.828125 86.296875 L 430.84375 86.304688 C 435.660156 85.300781 441.441406 81.667969 441.441406 74.453125 C 441.441406 63.144531 429.492188 61.863281 419.253906 61.863281 L 404.957031 61.863281 Z M 415.199219 66.769531 L 419.253906 66.769531 C 426.722656 66.769531 431.199219 68.050781 431.199219 75.304688 C 431.199219 82.34375 426.292969 84.265625 419.253906 84.265625 L 415.199219 84.265625 L 415.199219 66.769531 "/>
</g>
</svg>
